<svg width="1800" height="850" viewBox="0 0 1800 850" fill="none" xmlns="http://www.w3.org/2000/svg">
<g clip-path="url(#clip0_480_4910)">
<rect width="1800" height="850" fill="white"/>
<g clip-path="url(#clip1_480_4910)">
<rect width="1800" height="854" fill="#FFF8F3"/>
<path d="M1475.51 357.49C1419.23 415.103 1506.52 691.45 1241.21 872.246" stroke="#FFC18D" stroke-width="0.5"/>
<path d="M1477.25 351.947C1477.25 351.947 1475.29 328.843 1469.12 310.33C1461.25 286.725 1445.76 270.647 1445.76 270.647L1510.63 247.602L1550.07 304.019C1550.07 304.019 1523.93 315.129 1509.5 324.782C1491.39 336.903 1477.25 351.947 1477.25 351.947Z" fill="url(#paint0_linear_480_4910)"/>
<path d="M1480.34 341.564L1459.61 361.832L1474.19 360.393L1486.78 369.958L1480.34 341.564Z" fill="url(#paint1_linear_480_4910)"/>
<path d="M1477.25 351.947C1477.25 351.947 1475.29 328.843 1469.12 310.33C1461.25 286.725 1445.76 270.647 1445.76 270.647L1510.63 247.602L1550.07 304.019C1550.07 304.019 1523.93 315.129 1509.5 324.782C1491.39 336.903 1477.25 351.947 1477.25 351.947Z" fill="url(#paint2_linear_480_4910)"/>
<path d="M1477.25 351.947C1477.25 351.947 1476.54 336.899 1465.58 307.973C1461.85 298.109 1445.76 270.645 1445.76 270.645L1510.63 247.6L1477.25 351.947Z" fill="#00B2BD"/>
<path d="M1477.21 352.058C1477.14 352.034 1477.08 351.982 1477.04 351.914C1477.01 351.845 1477 351.765 1477.02 351.692L1510.3 247.678C1510.31 247.639 1510.32 247.603 1510.35 247.572C1510.37 247.541 1510.4 247.515 1510.44 247.495C1510.47 247.476 1510.51 247.464 1510.55 247.46C1510.59 247.456 1510.63 247.46 1510.66 247.472C1510.7 247.484 1510.74 247.503 1510.77 247.529C1510.8 247.555 1510.82 247.586 1510.84 247.622C1510.86 247.657 1510.87 247.696 1510.87 247.736C1510.87 247.775 1510.86 247.815 1510.85 247.852L1477.58 351.866C1477.57 351.903 1477.55 351.937 1477.52 351.966C1477.5 351.996 1477.47 352.02 1477.43 352.038C1477.4 352.056 1477.36 352.067 1477.32 352.07C1477.29 352.074 1477.25 352.07 1477.21 352.058Z" fill="#656D1B"/>
<path d="M1445.82 271.019C1445.77 271 1445.71 270.963 1445.68 270.913C1445.64 270.863 1445.62 270.803 1445.62 270.742C1445.62 270.68 1445.64 270.62 1445.68 270.57C1445.71 270.52 1445.77 270.483 1445.82 270.465C1446.01 270.405 1464.79 264.671 1501.41 276.387C1538.04 288.103 1550 303.67 1550.12 303.826C1550.16 303.888 1550.18 303.966 1550.17 304.042C1550.16 304.118 1550.12 304.187 1550.06 304.234C1550 304.28 1549.92 304.3 1549.84 304.289C1549.77 304.278 1549.7 304.237 1549.65 304.175C1549.54 304.02 1537.66 288.592 1501.24 276.94C1464.79 265.281 1446.19 270.959 1446 271.018C1445.94 271.037 1445.88 271.037 1445.82 271.019Z" fill="#656D1B"/>
<path d="M1500.58 277.463L1449.49 277.153C1451.14 280.038 1453.16 283.624 1455.23 287.386L1500.58 277.463Z" fill="#242151"/>
<path d="M1462.5 301.178L1497.56 284.304L1457.57 291.677C1459.35 294.986 1461.06 298.265 1462.5 301.178Z" fill="white"/>
<path d="M1465.56 307.975C1466.75 311.122 1467.82 314.095 1468.78 316.912L1494.46 293.307L1465.03 306.66C1465.22 307.121 1465.41 307.566 1465.56 307.975Z" fill="#E6AD61"/>
<path d="M1534.21 311.241C1538.52 309.169 1542.4 307.397 1545.24 306.126L1501.46 277.726L1534.21 311.241Z" fill="#E6AD61"/>
<path d="M1500.22 285.106L1520.21 318.375C1523.37 316.654 1526.62 314.975 1529.78 313.405L1500.22 285.106Z" fill="white"/>
<path d="M1514.96 321.359L1497.88 294.327L1506.12 327.095C1507.22 326.315 1508.34 325.544 1509.48 324.783C1511.16 323.655 1513.01 322.507 1514.96 321.359Z" fill="url(#paint3_linear_480_4910)"/>
<path d="M1367.03 537.789C1477.07 625.875 1419.53 808.247 1592.17 878.647" stroke="#77BDAD" stroke-width="0.5"/>
<path d="M1364.61 531.473C1364.61 531.473 1350.19 517.436 1335.61 508.805C1317.03 497.801 1297.73 496.065 1297.73 496.065L1327.17 444.06L1385.11 458.622C1385.11 458.622 1374.29 480.778 1370.32 495.313C1367.21 507.146 1365.3 519.259 1364.61 531.473Z" fill="url(#paint4_linear_480_4910)"/>
<path d="M1360.73 522.907L1358.65 547.991L1367.4 538.754L1381.09 537.869L1360.73 522.907Z" fill="url(#paint5_linear_480_4910)"/>
<path d="M1364.61 531.473C1364.61 531.473 1350.19 517.436 1335.61 508.805C1317.03 497.801 1297.73 496.065 1297.73 496.065L1327.17 444.06L1385.11 458.622C1385.11 458.622 1374.29 480.778 1370.32 495.313C1367.21 507.146 1365.3 519.259 1364.61 531.473Z" fill="url(#paint6_linear_480_4910)"/>
<path d="M1364.61 531.474C1364.61 531.474 1355.59 522.01 1331.96 509.271C1323.9 504.928 1297.73 496.066 1297.73 496.066L1327.17 444.06L1364.61 531.474Z" fill="url(#paint7_linear_480_4910)"/>
<path d="M1364.65 531.566C1364.62 531.579 1364.58 531.586 1364.55 531.587C1364.52 531.587 1364.49 531.581 1364.46 531.569C1364.42 531.556 1364.4 531.538 1364.37 531.515C1364.35 531.492 1364.33 531.464 1364.32 531.434L1326.99 444.297C1326.97 444.236 1326.97 444.167 1326.99 444.105C1327.02 444.044 1327.07 443.995 1327.13 443.968C1327.19 443.942 1327.26 443.941 1327.32 443.966C1327.38 443.99 1327.43 444.038 1327.46 444.099L1364.78 531.235C1364.79 531.265 1364.8 531.298 1364.8 531.331C1364.8 531.364 1364.8 531.397 1364.78 531.428C1364.77 531.459 1364.75 531.487 1364.73 531.511C1364.71 531.534 1364.68 531.553 1364.65 531.566Z" fill="#656D1B"/>
<path d="M1298.04 496.275C1297.99 496.295 1297.94 496.302 1297.89 496.295C1297.83 496.287 1297.78 496.266 1297.75 496.234C1297.71 496.203 1297.68 496.162 1297.68 496.118C1297.67 496.074 1297.68 496.03 1297.7 495.991C1297.78 495.867 1307.22 482.248 1337.15 469.932C1367.08 457.616 1384.59 458.581 1384.76 458.602C1384.83 458.611 1384.88 458.642 1384.92 458.686C1384.96 458.73 1384.98 458.785 1384.97 458.839C1384.96 458.893 1384.92 458.941 1384.87 458.974C1384.82 459.007 1384.75 459.021 1384.68 459.014C1384.52 458.992 1367.15 458.055 1337.38 470.304C1307.59 482.561 1298.23 496.063 1298.15 496.184C1298.13 496.223 1298.09 496.255 1298.04 496.275Z" fill="#656D1B"/>
<path d="M1321.86 486.176L1308.25 480.991L1303.07 494.606L1316.68 499.791L1321.86 486.176Z" fill="url(#paint8_linear_480_4910)"/>
<path d="M1340.76 477.697L1327.15 472.512L1321.97 486.127L1335.58 491.312L1340.76 477.697Z" fill="url(#paint9_linear_480_4910)"/>
<path d="M1359.66 469.217L1346.05 464.032L1340.87 477.647L1354.48 482.832L1359.66 469.217Z" fill="url(#paint10_linear_480_4910)"/>
<path d="M1349.02 497.047L1338.37 492.814L1342.52 481.9L1353.44 486.057L1349.02 497.047Z" fill="#242151"/>
<path d="M1339.11 474.004L1328.46 469.771L1332.61 458.856L1343.52 463.013L1339.11 474.004Z" fill="#242151"/>
<path d="M1378.56 460.738L1364.95 455.553L1359.77 469.167L1373.38 474.352L1378.56 460.738Z" fill="url(#paint11_linear_480_4910)"/>
<path d="M295.092 517.455C352.438 562.425 168.521 728.898 343 854" stroke="#FFC18D" stroke-width="0.5"/>
<path d="M259.907 469.806L294.816 470.583C294.813 470.597 294.81 470.61 294.806 470.624C294.713 471.038 294.579 471.638 294.416 472.387C294.092 473.885 293.655 475.976 293.207 478.35C292.31 483.092 291.361 488.992 291.165 493.555L291.165 493.56C290.936 500.584 291.377 507.614 292.481 514.554C292.24 514.413 291.955 514.248 291.631 514.063C290.507 513.421 288.907 512.533 287.003 511.547C283.2 509.577 278.167 507.209 273.282 505.64C267.044 503.637 261.019 503.03 256.557 502.923C254.325 502.87 252.481 502.941 251.193 503.026C250.678 503.06 250.252 503.096 249.925 503.127L259.907 469.806Z" fill="url(#paint12_linear_480_4910)" stroke="#FFC18D"/>
<path d="M295.608 518.945L295.42 519.001L295.32 519.17L292.154 524.525L290.347 511.842L302.198 516.989L295.608 518.945Z" fill="#F98130" stroke="#FFC18D"/>
<path d="M257.973 505.23L257.335 518.266L250.107 504.315L257.973 505.23Z" fill="#F98130" stroke="#FFC18D"/>
<path d="M294.256 478.204L295.628 471.11L306.974 481.759L294.256 478.204Z" fill="#FF7E11" stroke="#FFC18D"/>
<path d="M251.193 503.026C250.678 503.06 250.252 503.096 249.925 503.127L259.907 469.806L294.816 470.583C294.813 470.597 294.81 470.61 294.806 470.624C294.713 471.038 294.579 471.638 294.416 472.387C294.092 473.885 293.655 475.976 293.207 478.35C292.31 483.092 291.361 488.992 291.165 493.555L291.165 493.56C290.936 500.584 291.377 507.614 292.481 514.554C292.24 514.413 291.955 514.248 291.631 514.063C290.507 513.421 288.907 512.533 287.003 511.547C283.2 509.577 278.167 507.209 273.282 505.64C267.044 503.637 261.019 503.03 256.557 502.923C254.325 502.87 252.481 502.941 251.193 503.026Z" fill="#00B2BD" stroke="#FFC18D"/>
<path d="M249.882 503.272L259.726 470.409L291.374 513.944C290.555 513.511 289.48 512.976 288.135 512.365C284.53 510.73 278.981 508.558 271.182 506.395L271.182 506.395C268.49 505.648 262.996 504.852 258.214 504.245C255.815 503.94 253.582 503.681 251.949 503.498C251.132 503.407 250.465 503.335 250.003 503.285C249.961 503.281 249.92 503.277 249.882 503.272Z" fill="#B5E1D7" stroke="#FFC18D"/>
<path d="M269.365 482.975L269.366 482.975C272.765 480.399 276.742 478.694 280.952 478.008C285.018 477.346 289.182 477.653 293.104 478.904C292.734 480.892 292.36 483.057 292.039 485.227C289.029 484.117 285.792 483.751 282.605 484.165C279.208 484.607 275.983 485.92 273.243 487.977C270.503 490.033 268.342 492.764 266.968 495.903C265.682 498.845 265.128 502.051 265.351 505.247C263.328 504.926 261.108 504.618 258.983 504.343C258.906 500.288 259.773 496.268 261.517 492.603C263.322 488.81 266.014 485.508 269.365 482.975Z" fill="#FF7703" stroke="#FFC18D"/>
<path d="M266.671 478.912L266.67 478.913C263.445 481.361 259.698 483.021 255.726 483.767L257.013 479.472C259.626 478.679 262.08 477.428 264.258 475.777C266.37 474.181 268.192 472.235 269.644 470.023L274.101 470.122C272.312 473.567 269.774 476.571 266.671 478.912Z" fill="#FF7E11" stroke="#FFC18D"/>
<path d="M269.088 483.19L272.906 488.237C270.314 490.269 268.268 492.915 266.952 495.939C265.676 498.871 265.128 502.065 265.351 505.249C263.328 504.928 261.109 504.62 258.983 504.345C258.906 500.289 259.773 496.27 261.517 492.604C263.272 488.917 265.866 485.693 269.088 483.19Z" fill="#F98130" stroke="#FFC18D"/>
<mask id="path-37-inside-1_480_4910" fill="white">
<path d="M293.179 515.579C293.163 515.591 293.145 515.599 293.126 515.604C293.106 515.608 293.086 515.609 293.066 515.606C293.047 515.603 293.028 515.596 293.011 515.586C292.994 515.575 292.979 515.562 292.967 515.545L259.466 469.462C259.455 469.446 259.446 469.428 259.441 469.408C259.437 469.389 259.436 469.369 259.439 469.349C259.442 469.329 259.449 469.311 259.46 469.294C259.47 469.277 259.484 469.262 259.5 469.25C259.516 469.238 259.534 469.23 259.554 469.225C259.573 469.221 259.593 469.22 259.613 469.223C259.632 469.226 259.651 469.233 259.668 469.243C259.685 469.254 259.7 469.268 259.712 469.284L293.212 515.367C293.224 515.383 293.233 515.401 293.237 515.421C293.242 515.44 293.243 515.46 293.24 515.48C293.237 515.499 293.23 515.518 293.219 515.535C293.209 515.552 293.195 515.567 293.179 515.579Z"/>
</mask>
<path d="M293.179 515.579C293.163 515.591 293.145 515.599 293.126 515.604C293.106 515.608 293.086 515.609 293.066 515.606C293.047 515.603 293.028 515.596 293.011 515.586C292.994 515.575 292.979 515.562 292.967 515.545L259.466 469.462C259.455 469.446 259.446 469.428 259.441 469.408C259.437 469.389 259.436 469.369 259.439 469.349C259.442 469.329 259.449 469.311 259.46 469.294C259.47 469.277 259.484 469.262 259.5 469.25C259.516 469.238 259.534 469.23 259.554 469.225C259.573 469.221 259.593 469.22 259.613 469.223C259.632 469.226 259.651 469.233 259.668 469.243C259.685 469.254 259.7 469.268 259.712 469.284L293.212 515.367C293.224 515.383 293.233 515.401 293.237 515.421C293.242 515.44 293.243 515.46 293.24 515.48C293.237 515.499 293.23 515.518 293.219 515.535C293.209 515.552 293.195 515.567 293.179 515.579Z" fill="#F39646"/>
<path d="M293.179 515.579L292.593 514.769L292.59 514.77L293.179 515.579ZM292.967 515.545L292.159 516.134L292.159 516.134L292.967 515.545ZM259.466 469.462L258.657 470.05L258.658 470.05L259.466 469.462ZM259.712 469.284L258.903 469.872L258.903 469.872L259.712 469.284ZM293.212 515.367L292.404 515.955L292.406 515.958L293.212 515.367ZM292.59 514.77C292.68 514.705 292.782 514.658 292.891 514.631L293.36 516.576C293.507 516.54 293.646 516.476 293.768 516.387L292.59 514.77ZM292.891 514.631C292.999 514.605 293.111 514.601 293.221 514.618L292.911 516.594C293.061 516.618 293.214 516.611 293.36 516.576L292.891 514.631ZM293.221 514.618C293.33 514.635 293.436 514.673 293.532 514.732L292.49 516.439C292.62 516.519 292.764 516.571 292.911 516.594L293.221 514.618ZM293.532 514.732C293.628 514.791 293.711 514.868 293.776 514.957L292.159 516.134C292.248 516.256 292.36 516.359 292.49 516.439L293.532 514.732ZM293.776 514.957L260.275 468.874L258.658 470.05L292.159 516.134L293.776 514.957ZM260.275 468.874C260.341 468.965 260.388 469.067 260.414 469.175L258.469 469.642C258.505 469.788 258.568 469.927 258.657 470.05L260.275 468.874ZM260.414 469.175C260.44 469.283 260.444 469.396 260.427 469.506L258.452 469.193C258.428 469.342 258.434 469.494 258.469 469.642L260.414 469.175ZM260.427 469.506C260.409 469.616 260.37 469.721 260.312 469.816L258.607 468.771C258.528 468.9 258.475 469.043 258.452 469.193L260.427 469.506ZM260.312 469.816C260.254 469.912 260.177 469.994 260.088 470.059L258.912 468.441C258.79 468.53 258.686 468.641 258.607 468.771L260.312 469.816ZM260.088 470.059C259.998 470.124 259.896 470.172 259.787 470.198L259.32 468.253C259.172 468.288 259.034 468.352 258.912 468.441L260.088 470.059ZM259.787 470.198C259.678 470.224 259.565 470.228 259.456 470.211L259.769 468.235C259.621 468.212 259.468 468.217 259.32 468.253L259.787 470.198ZM259.456 470.211C259.347 470.193 259.241 470.155 259.146 470.096L260.19 468.391C260.061 468.311 259.918 468.259 259.769 468.235L259.456 470.211ZM259.146 470.096C259.052 470.039 258.969 469.962 258.903 469.872L260.52 468.696C260.431 468.573 260.319 468.469 260.19 468.391L259.146 470.096ZM258.903 469.872L292.404 515.955L294.021 514.779L260.52 468.696L258.903 469.872ZM292.406 515.958C292.34 515.869 292.293 515.766 292.266 515.657L294.209 515.185C294.173 515.036 294.108 514.897 294.019 514.776L292.406 515.958ZM292.266 515.657C292.24 515.548 292.235 515.436 292.252 515.324L294.228 515.635C294.251 515.485 294.245 515.332 294.209 515.185L292.266 515.657ZM292.252 515.324C292.27 515.214 292.309 515.108 292.367 515.012L294.072 516.058C294.151 515.929 294.204 515.785 294.228 515.635L292.252 515.324ZM292.367 515.012C292.426 514.917 292.503 514.834 292.593 514.769L293.766 516.389C293.888 516.3 293.992 516.188 294.072 516.058L292.367 515.012Z" fill="#FFC18D" mask="url(#path-37-inside-1_480_4910)"/>
<path d="M249.403 503.794C249.377 503.813 249.346 503.823 249.314 503.822C249.282 503.822 249.251 503.812 249.225 503.793C249.199 503.774 249.179 503.747 249.17 503.717C249.16 503.687 249.16 503.654 249.17 503.624L249.311 503.672L249.313 503.672L249.314 503.673L249.314 503.674L249.403 503.794ZM249.403 503.794C249.428 503.775 249.447 503.75 249.457 503.721M249.403 503.794L249.317 503.674L249.457 503.721M249.457 503.721C249.457 503.72 249.457 503.72 249.458 503.719L249.326 503.675L249.457 503.721ZM295.38 470.319L295.379 470.169L295.379 470.168L295.379 470.168L295.377 470.017C295.417 470.016 295.456 470.032 295.485 470.06C295.513 470.088 295.53 470.127 295.53 470.167C295.531 470.207 295.515 470.246 295.487 470.275C295.459 470.304 295.42 470.32 295.38 470.32C295.38 470.32 295.38 470.32 295.379 470.32C295.371 470.32 295.318 470.322 295.223 470.327C295.181 470.33 295.132 470.333 295.074 470.337C295.046 470.287 295.031 470.23 295.03 470.172C295.03 470.124 295.039 470.078 295.057 470.034C295.125 470.029 295.183 470.025 295.23 470.023C295.321 470.018 295.37 470.017 295.377 470.017L295.377 470.017L295.377 470.018L295.377 470.019L295.378 470.168L295.378 470.169L295.38 470.319ZM295.38 470.319L295.38 470.319L295.38 470.319ZM249.311 503.669L249.291 503.663L249.171 503.621C249.174 503.612 249.185 503.58 249.205 503.527L249.311 503.669ZM249.314 503.67L249.207 503.522C249.226 503.473 249.252 503.407 249.286 503.324C249.296 503.323 249.306 503.322 249.316 503.322C249.389 503.323 249.461 503.346 249.52 503.39C249.538 503.403 249.554 503.417 249.568 503.433C249.538 503.506 249.515 503.566 249.497 503.612C249.474 503.672 249.462 503.707 249.458 503.718L249.314 503.671L249.314 503.671L249.314 503.67L249.314 503.67Z" fill="#F39646" stroke="#FFC18D"/>
</g>
</g>
<defs>
<linearGradient id="paint0_linear_480_4910" x1="1285.09" y1="315.041" x2="1371.7" y2="312.453" gradientUnits="userSpaceOnUse">
<stop stop-color="#FF5A91"/>
<stop offset="1" stop-color="#FF2E5B"/>
</linearGradient>
<linearGradient id="paint1_linear_480_4910" x1="1373.96" y1="383.24" x2="1402.31" y2="382.393" gradientUnits="userSpaceOnUse">
<stop stop-color="#E76A00"/>
<stop offset="1" stop-color="#FF7603"/>
</linearGradient>
<linearGradient id="paint2_linear_480_4910" x1="1285.09" y1="315.041" x2="1371.7" y2="312.453" gradientUnits="userSpaceOnUse">
<stop stop-color="#018B87"/>
<stop offset="0.551" stop-color="#02A1AB"/>
<stop offset="1" stop-color="#0E868E"/>
</linearGradient>
<linearGradient id="paint3_linear_480_4910" x1="1389.84" y1="334.282" x2="1413.93" y2="333.56" gradientUnits="userSpaceOnUse">
<stop stop-color="#242151"/>
<stop offset="1" stop-color="#242151"/>
</linearGradient>
<linearGradient id="paint4_linear_480_4910" x1="905.251" y1="434.11" x2="980.336" y2="439.485" gradientUnits="userSpaceOnUse">
<stop stop-color="#FF5A91"/>
<stop offset="1" stop-color="#FF2E5B"/>
</linearGradient>
<linearGradient id="paint5_linear_480_4910" x1="1436.02" y1="356.827" x2="1460.58" y2="358.585" gradientUnits="userSpaceOnUse">
<stop offset="0.014" stop-color="#E76A00"/>
<stop offset="1" stop-color="#8AC618"/>
</linearGradient>
<linearGradient id="paint6_linear_480_4910" x1="905.251" y1="434.11" x2="980.336" y2="439.485" gradientUnits="userSpaceOnUse">
<stop stop-color="#E76A00"/>
<stop offset="1" stop-color="#FF7E10"/>
</linearGradient>
<linearGradient id="paint7_linear_480_4910" x1="841.442" y1="615.76" x2="873.958" y2="582.221" gradientUnits="userSpaceOnUse">
<stop stop-color="#FA8624"/>
<stop offset="1" stop-color="#FFAD68"/>
</linearGradient>
<linearGradient id="paint8_linear_480_4910" x1="1304.87" y1="863.703" x2="1319.22" y2="851.789" gradientUnits="userSpaceOnUse">
<stop offset="0.014" stop-color="#F2F2F2"/>
<stop offset="1" stop-color="#DEDEDE"/>
</linearGradient>
<linearGradient id="paint9_linear_480_4910" x1="1322.16" y1="849.669" x2="1336.51" y2="837.741" gradientUnits="userSpaceOnUse">
<stop offset="0.014" stop-color="#F2F2F2"/>
<stop offset="1" stop-color="#DEDEDE"/>
</linearGradient>
<linearGradient id="paint10_linear_480_4910" x1="1339.45" y1="835.62" x2="1353.8" y2="823.706" gradientUnits="userSpaceOnUse">
<stop offset="0.014" stop-color="#F2F2F2"/>
<stop offset="1" stop-color="#DEDEDE"/>
</linearGradient>
<linearGradient id="paint11_linear_480_4910" x1="1356.74" y1="821.586" x2="1371.09" y2="809.658" gradientUnits="userSpaceOnUse">
<stop offset="0.014" stop-color="#F2F2F2"/>
<stop offset="1" stop-color="#DEDEDE"/>
</linearGradient>
<linearGradient id="paint12_linear_480_4910" x1="276.464" y1="739.394" x2="295.922" y2="698.592" gradientUnits="userSpaceOnUse">
<stop stop-color="#FF5A91"/>
<stop offset="1" stop-color="#FF2E5B"/>
</linearGradient>
<clipPath id="clip0_480_4910">
<rect width="1800" height="850" fill="white"/>
</clipPath>
<clipPath id="clip1_480_4910">
<rect width="1800" height="854" fill="white"/>
</clipPath>
</defs>
</svg>
