<svg width="249" height="94" viewBox="0 0 249 94" fill="none" xmlns="http://www.w3.org/2000/svg">
<path d="M238.138 20.5116C238.526 20.4099 238.576 20.0336 238.576 17.1813C238.576 15.3057 238.472 13.8995 238.325 13.81C237.892 13.5425 238.024 11.489 238.491 11.2276C238.857 11.0243 238.888 10.6274 238.751 7.92762L238.596 4.85999L239.526 4.00928C240.036 3.54097 240.466 2.96738 240.481 2.73504C240.494 2.5027 240.523 1.75848 240.543 1.08324C240.593 -0.590345 240.805 -0.253934 240.903 1.65804C240.977 3.08839 241.06 3.28927 241.895 4.05164L242.806 4.8854L242.658 8.03532C242.544 10.4168 242.583 11.1852 242.811 11.1852C242.978 11.1852 243.045 11.2978 242.96 11.4357C242.874 11.5725 242.924 11.685 243.07 11.685C243.408 11.685 243.421 13.603 243.085 13.81C242.94 13.8995 242.834 15.3057 242.834 17.1813C242.834 20.0336 242.884 20.4099 243.273 20.5116C243.514 20.5745 242.359 20.6253 240.706 20.6253C239.053 20.6253 237.897 20.5745 238.138 20.5116ZM238.576 13.5595C238.576 13.4917 238.52 13.4348 238.451 13.4348C238.382 13.4348 238.325 13.4917 238.325 13.5595C238.325 13.6285 238.382 13.6853 238.451 13.6853C238.52 13.6853 238.576 13.6285 238.576 13.5595ZM241.777 13.5038C241.264 13.4494 240.362 13.4494 239.773 13.5014C239.183 13.5546 239.603 13.5982 240.706 13.5994C241.808 13.6006 242.29 13.5571 241.777 13.5026V13.5038ZM243.085 13.5595C243.085 13.4917 243.029 13.4348 242.96 13.4348C242.891 13.4348 242.834 13.4917 242.834 13.5595C242.834 13.6285 242.891 13.6853 242.96 13.6853C243.029 13.6853 243.085 13.6285 243.085 13.5595ZM239.239 12.6228C239.191 12.3131 238.995 12.0601 238.802 12.0601C238.609 12.0601 238.415 12.3131 238.371 12.6228C238.31 13.05 238.415 13.1855 238.808 13.1855C239.203 13.1855 239.304 13.0524 239.239 12.6228ZM240.535 12.6228C240.491 12.3131 240.286 12.0601 240.079 12.0601C239.872 12.0601 239.667 12.3131 239.624 12.6228C239.562 13.0549 239.666 13.1855 240.079 13.1855C240.491 13.1855 240.597 13.0549 240.535 12.6228ZM241.787 12.6228C241.744 12.3131 241.538 12.0601 241.331 12.0601C241.124 12.0601 240.92 12.3131 240.876 12.6228C240.815 13.0549 240.919 13.1855 241.331 13.1855C241.744 13.1855 241.849 13.0549 241.787 12.6228ZM243.04 12.6228C242.996 12.3131 242.8 12.0601 242.604 12.0601C242.409 12.0601 242.232 12.3131 242.209 12.6228C242.178 13.0234 242.304 13.1855 242.643 13.1855C242.994 13.1855 243.099 13.0367 243.04 12.6228ZM241.645 11.5023C241.059 11.449 240.101 11.449 239.515 11.5023C238.93 11.5543 239.408 11.5979 240.58 11.5979C241.751 11.5979 242.23 11.5543 241.645 11.5023ZM240.531 9.49834C240.476 8.6428 240.35 8.31122 240.079 8.31122C239.809 8.31122 239.682 8.6428 239.627 9.49834C239.558 10.5632 239.604 10.6855 240.079 10.6855C240.553 10.6855 240.599 10.5632 240.531 9.49834ZM241.815 9.74763C241.806 9.23212 241.71 8.58834 241.604 8.31607C241.415 7.83323 241.404 7.83444 241.121 8.36205C240.961 8.65974 240.83 9.30352 240.83 9.79361C240.83 10.5185 240.925 10.6855 241.331 10.6855C241.746 10.6855 241.83 10.5245 241.815 9.74763ZM241.514 7.0031C240.994 6.94985 240.205 6.94985 239.761 7.00552C239.315 7.06118 239.741 7.10475 240.706 7.10354C241.67 7.10232 242.033 7.05755 241.514 7.0031Z" fill="#FA8624" fill-opacity="0.6"/>
<path d="M201.691 20.5079C202.239 20.4014 202.254 20.3143 202.254 17.3229C202.254 14.893 202.176 14.1803 201.878 13.9346C201.354 13.5002 201.369 11.4708 201.897 11.2687C202.234 11.1393 202.28 10.6443 202.21 7.88043C202.132 4.77045 202.152 4.62524 202.696 4.18476C203.008 3.93185 203.392 3.68377 203.548 3.63053C203.859 3.52767 203.955 2.97102 203.987 1.08325C204.015 -0.551611 204.204 -0.290227 204.332 1.55882C204.422 2.85364 204.549 3.16101 205.337 3.98146L206.238 4.92051L206.086 7.95788C205.951 10.6286 205.983 11.0243 206.348 11.2276C206.647 11.3958 206.763 11.8048 206.763 12.6979C206.763 13.378 206.651 13.9346 206.513 13.9346C206.359 13.9346 206.262 15.1786 206.262 17.1656C206.262 20.0336 206.312 20.4099 206.7 20.5116C206.941 20.5745 205.787 20.6241 204.133 20.6205C202.48 20.6181 201.381 20.5672 201.691 20.5079ZM202.004 13.5595C202.004 13.4917 201.947 13.4348 201.878 13.4348C201.809 13.4348 201.753 13.4917 201.753 13.5595C201.753 13.6285 201.809 13.6853 201.878 13.6853C201.947 13.6853 202.004 13.6285 202.004 13.5595ZM203.069 13.5195C202.896 13.4506 202.614 13.4506 202.442 13.5195C202.27 13.5885 202.411 13.6454 202.755 13.6454C203.1 13.6454 203.241 13.5885 203.069 13.5195ZM205.824 13.5038C205.377 13.4482 204.643 13.4482 204.195 13.5038C203.748 13.5595 204.114 13.6055 205.01 13.6055C205.905 13.6055 206.272 13.5595 205.824 13.5038ZM202.711 12.6229C202.666 12.3131 202.461 12.0602 202.254 12.0602C202.047 12.0602 201.843 12.3131 201.798 12.6229C201.736 13.0549 201.842 13.1856 202.254 13.1856C202.667 13.1856 202.771 13.0549 202.711 12.6229ZM203.963 12.6229C203.918 12.3131 203.714 12.0602 203.507 12.0602C203.3 12.0602 203.095 12.3131 203.051 12.6229C202.989 13.0549 203.094 13.1856 203.507 13.1856C203.92 13.1856 204.024 13.0549 203.963 12.6229ZM205.26 12.7003C205.26 12.4329 205.141 12.14 204.993 12.0505C204.671 11.8508 204.62 11.9004 204.398 12.6229C204.257 13.0803 204.321 13.1856 204.742 13.1856C205.089 13.1856 205.26 13.0234 205.26 12.7003ZM206.468 12.6422C206.349 11.8423 205.761 11.7564 205.761 12.5394C205.761 12.9593 205.898 13.1856 206.155 13.1856C206.416 13.1856 206.521 13.0028 206.468 12.6422ZM205.456 11.5023C204.807 11.4503 203.68 11.4503 202.951 11.5011C202.224 11.5519 202.755 11.5931 204.133 11.5943C205.511 11.5943 206.106 11.5531 205.456 11.5023ZM204.004 9.62299C204.002 9.03851 203.901 8.40441 203.78 8.21443C203.463 7.71586 203.006 8.65006 203.006 9.79362C203.006 10.5185 203.099 10.6855 203.507 10.6855C203.929 10.6855 204.007 10.5197 204.004 9.62299ZM205.257 9.62299C205.252 8.42014 204.886 7.55976 204.648 8.19264C204.441 8.73961 204.291 10.2825 204.423 10.4979C204.487 10.6008 204.701 10.6855 204.9 10.6855C205.157 10.6855 205.259 10.3829 205.257 9.62299ZM204.942 7.00311C204.422 6.94986 203.633 6.94986 203.189 7.00553C202.743 7.06119 203.168 7.10475 204.133 7.10354C205.097 7.10233 205.461 7.05756 204.942 7.00311Z" fill="#FA8624" fill-opacity="0.6"/>
<path d="M236.572 34.9313V33.4319H244.838V36.4306H236.572V34.9313ZM238.278 34.9942C238.217 34.2488 238.098 34.0563 237.7 34.0563C237.302 34.0563 237.183 34.2488 237.12 34.9942C237.049 35.8582 237.094 35.9308 237.7 35.9308C238.305 35.9308 238.35 35.8582 238.278 34.9942ZM240.282 34.9942C240.221 34.2488 240.102 34.0563 239.704 34.0563C239.306 34.0563 239.187 34.2488 239.124 34.9942C239.053 35.8582 239.098 35.9308 239.704 35.9308C240.309 35.9308 240.354 35.8582 240.282 34.9942ZM242.286 34.9942C242.224 34.2488 242.106 34.0563 241.708 34.0563C241.31 34.0563 241.191 34.2488 241.129 34.9942C241.057 35.8582 241.101 35.9308 241.708 35.9308C242.313 35.9308 242.358 35.8582 242.286 34.9942ZM244.29 34.9942C244.228 34.2488 244.11 34.0563 243.712 34.0563C243.314 34.0563 243.195 34.2488 243.133 34.9942C243.061 35.8582 243.105 35.9308 243.712 35.9308C244.317 35.9308 244.362 35.8582 244.29 34.9942Z" fill="#FA8624" fill-opacity="0.6"/>
<path d="M200 34.7933C200 33.1984 200.019 33.1487 200.751 32.8946L201.503 32.6332V28.4632C201.503 24.603 201.465 24.2629 201.002 23.866C200.624 23.5441 200.501 23.129 200.501 22.1864V20.9339H207.765V22.2965C207.765 23.3081 207.658 23.7184 207.348 23.8914C206.992 24.0899 206.912 24.7324 206.813 28.1704C206.732 30.9935 206.781 32.3005 206.98 32.4989C207.192 32.7095 207.264 31.9144 207.264 29.3744V25.9655L207.953 25.8869C208.332 25.8433 215.215 25.8373 223.247 25.8748L237.852 25.9413L237.776 27.1236L237.7 28.3071L207.389 28.5636L222.607 28.6229L237.824 28.6822V30.5446C237.824 32.0451 237.74 32.4614 237.386 32.6877C236.977 32.9515 236.979 32.96 237.407 32.8256C237.659 32.747 237.913 32.6816 237.971 32.6816C238.028 32.6816 238.075 30.766 238.075 28.4245C238.075 24.8789 238.013 24.1431 237.701 24.0245C237.495 23.9459 237.389 23.7801 237.465 23.6566C237.541 23.5344 237.484 23.4328 237.338 23.4328C237.187 23.4328 237.073 22.8967 237.073 22.1839V20.9339H244.337V22.1864C244.337 23.129 244.214 23.5441 243.836 23.866C243.373 24.2629 243.335 24.6042 243.335 28.4402V32.5848L244.025 32.8559C244.527 33.0532 239.81 33.1173 226.552 33.0919C216.564 33.0725 208.166 32.9612 207.89 32.8462C207.501 32.6816 207.474 32.6937 207.765 32.9007C208.039 33.0943 207.05 33.1875 204.133 33.2431L200.125 33.3206L208.266 33.4319V36.4306H200V34.7933ZM201.706 34.9942C201.645 34.2487 201.525 34.0563 201.127 34.0563C200.728 34.0563 200.61 34.2487 200.548 34.9942C200.477 35.8582 200.522 35.9308 201.127 35.9308C201.733 35.9308 201.778 35.8582 201.706 34.9942ZM203.71 34.9942C203.648 34.2487 203.529 34.0563 203.131 34.0563C202.732 34.0563 202.614 34.2487 202.552 34.9942C202.481 35.8582 202.525 35.9308 203.131 35.9308C203.737 35.9308 203.782 35.8582 203.71 34.9942ZM205.714 34.9942C205.652 34.2487 205.533 34.0563 205.134 34.0563C204.736 34.0563 204.618 34.2487 204.556 34.9942C204.485 35.8582 204.529 35.9308 205.134 35.9308C205.741 35.9308 205.786 35.8582 205.714 34.9942ZM207.963 35.304C208.065 34.5876 207.472 33.8676 206.945 34.0696C206.651 34.1822 206.513 34.5113 206.513 35.0994C206.513 35.8957 206.567 35.9586 207.201 35.8848C207.666 35.8316 207.914 35.6428 207.963 35.304ZM208.824 31.244C208.549 29.7241 207.515 29.6987 207.515 31.2126C207.515 31.837 207.609 31.9314 208.231 31.9314C208.876 31.9314 208.935 31.8624 208.824 31.244ZM211.022 31.3251C211.022 30.9911 210.84 30.5373 210.62 30.3159C210.08 29.7786 209.519 30.236 209.519 31.2126C209.519 31.8455 209.609 31.9314 210.27 31.9314C210.899 31.9314 211.022 31.8321 211.022 31.3251ZM212.978 31.1194C212.913 30.4405 212.798 30.3074 212.274 30.3074C211.75 30.3074 211.635 30.4405 211.57 31.1194C211.496 31.8793 211.541 31.9314 212.274 31.9314C213.007 31.9314 213.052 31.8793 212.978 31.1194ZM214.982 31.1194C214.917 30.4405 214.802 30.3074 214.278 30.3074C213.754 30.3074 213.639 30.4405 213.574 31.1194C213.5 31.8793 213.545 31.9314 214.278 31.9314C215.011 31.9314 215.056 31.8793 214.982 31.1194ZM217.034 31.2126C217.034 30.236 216.472 29.7786 215.932 30.3159C215.712 30.5373 215.531 30.9911 215.531 31.3251C215.531 31.8321 215.654 31.9314 216.282 31.9314C216.943 31.9314 217.034 31.8455 217.034 31.2126ZM219.037 31.2319C219.037 30.8471 218.912 30.4054 218.757 30.2517C218.273 29.7689 217.785 30.1876 217.785 31.0831C217.785 31.8213 217.866 31.9314 218.412 31.9314C218.93 31.9314 219.037 31.8116 219.037 31.2319ZM221.041 31.2126C221.041 30.3365 220.519 29.804 220.084 30.2384C219.922 30.3994 219.789 30.8471 219.789 31.2319C219.789 31.8116 219.897 31.9314 220.416 31.9314C220.939 31.9314 221.041 31.8128 221.041 31.2126ZM223.045 31.2126C223.045 30.3365 222.523 29.804 222.088 30.2384C221.926 30.3994 221.793 30.8471 221.793 31.2319C221.793 31.8116 221.901 31.9314 222.42 31.9314C222.942 31.9314 223.045 31.8128 223.045 31.2126ZM225.163 31.1375C224.978 29.683 223.797 29.7483 223.797 31.2126C223.797 31.8406 223.89 31.9314 224.53 31.9314C225.208 31.9314 225.256 31.8721 225.163 31.1375ZM227.257 31.1194C227.191 30.4405 227.076 30.3074 226.552 30.3074C226.029 30.3074 225.913 30.4405 225.848 31.1194C225.774 31.8793 225.82 31.9314 226.552 31.9314C227.286 31.9314 227.33 31.8793 227.257 31.1194ZM229.262 31.1194C229.195 30.4405 229.08 30.3074 228.556 30.3074C228.033 30.3074 227.917 30.4405 227.852 31.1194C227.778 31.8793 227.824 31.9314 228.556 31.9314C229.29 31.9314 229.334 31.8793 229.262 31.1194ZM231.312 31.2126C231.312 30.236 230.75 29.7786 230.212 30.3159C229.99 30.5373 229.809 30.9911 229.809 31.3251C229.809 31.8321 229.932 31.9314 230.56 31.9314C231.221 31.9314 231.312 31.8455 231.312 31.2126ZM233.316 31.2126C233.316 30.4272 232.833 29.8597 232.399 30.1344C232.249 30.2288 232.046 30.6729 231.949 31.1194C231.78 31.8987 231.805 31.9314 232.545 31.9314C233.227 31.9314 233.316 31.8491 233.316 31.2126ZM235.273 31.1194C235.213 30.4998 235.075 30.3074 234.694 30.3074C234.311 30.3074 234.174 30.4998 234.114 31.1194C234.044 31.8491 234.102 31.9314 234.694 31.9314C235.284 31.9314 235.344 31.8491 235.273 31.1194ZM237.277 31.1194C237.217 30.4998 237.079 30.3074 236.698 30.3074C236.315 30.3074 236.177 30.4998 236.118 31.1194C236.048 31.8491 236.106 31.9314 236.698 31.9314C237.288 31.9314 237.348 31.8491 237.277 31.1194ZM208.858 27.2446C208.83 26.8671 208.799 26.4738 208.788 26.3709C208.777 26.2669 208.509 26.1834 208.195 26.1834C207.73 26.1834 207.629 26.3116 207.655 26.8707C207.704 27.9041 207.721 27.9332 208.338 27.9332C208.806 27.9332 208.9 27.8085 208.858 27.2446ZM211.022 27.0583C211.022 26.3019 210.941 26.1834 210.423 26.1834C209.925 26.1834 209.807 26.3298 209.722 27.0583C209.626 27.8739 209.666 27.932 210.321 27.932C210.955 27.932 211.022 27.8497 211.022 27.0583ZM213.026 27.0583C213.026 26.2911 212.948 26.1834 212.4 26.1834C211.851 26.1834 211.773 26.2911 211.773 27.0583C211.773 27.8243 211.851 27.932 212.4 27.932C212.948 27.932 213.026 27.8243 213.026 27.0583ZM215.03 27.0583C215.03 26.2911 214.952 26.1834 214.404 26.1834C213.855 26.1834 213.777 26.2911 213.777 27.0583C213.777 27.8243 213.855 27.932 214.404 27.932C214.952 27.932 215.03 27.8243 215.03 27.0583ZM217.034 27.0583C217.034 26.2911 216.956 26.1834 216.408 26.1834C215.858 26.1834 215.781 26.2911 215.781 27.0583C215.781 27.8243 215.858 27.932 216.408 27.932C216.956 27.932 217.034 27.8243 217.034 27.0583ZM219.037 27.0583C219.037 26.2911 218.96 26.1834 218.412 26.1834C217.862 26.1834 217.785 26.2911 217.785 27.0583C217.785 27.8243 217.862 27.932 218.412 27.932C218.96 27.932 219.037 27.8243 219.037 27.0583ZM221.041 27.0583C221.041 26.2911 220.964 26.1834 220.416 26.1834C219.866 26.1834 219.789 26.2911 219.789 27.0583C219.789 27.8243 219.866 27.932 220.416 27.932C220.964 27.932 221.041 27.8243 221.041 27.0583ZM223.045 27.0583C223.045 26.2911 222.968 26.1834 222.42 26.1834C221.87 26.1834 221.793 26.2911 221.793 27.0583C221.793 27.8243 221.87 27.932 222.42 27.932C222.968 27.932 223.045 27.8243 223.045 27.0583ZM225.049 27.0583C225.049 26.2911 224.972 26.1834 224.424 26.1834C223.874 26.1834 223.797 26.2911 223.797 27.0583C223.797 27.8243 223.874 27.932 224.424 27.932C224.972 27.932 225.049 27.8243 225.049 27.0583ZM227.053 27.0583C227.053 26.2911 226.976 26.1834 226.428 26.1834C225.878 26.1834 225.801 26.2911 225.801 27.0583C225.801 27.8243 225.878 27.932 226.428 27.932C226.976 27.932 227.053 27.8243 227.053 27.0583ZM229.057 27.0583C229.057 26.2911 228.98 26.1834 228.432 26.1834C227.882 26.1834 227.805 26.2911 227.805 27.0583C227.805 27.8243 227.882 27.932 228.432 27.932C228.98 27.932 229.057 27.8243 229.057 27.0583ZM231.164 27.12C231.146 26.4883 231.021 26.2898 230.6 26.2281C230.302 26.1846 230.048 26.2402 230.035 26.3528C229.853 27.8448 229.881 27.9332 230.536 27.9332C231.107 27.9332 231.183 27.8339 231.164 27.12ZM233.316 27.0583C233.316 26.2911 233.238 26.1834 232.69 26.1834C232.141 26.1834 232.063 26.2911 232.063 27.0583C232.063 27.8243 232.141 27.932 232.69 27.932C233.238 27.932 233.316 27.8243 233.316 27.0583ZM235.319 27.0583C235.319 26.2911 235.242 26.1834 234.694 26.1834C234.144 26.1834 234.067 26.2911 234.067 27.0583C234.067 27.8243 234.144 27.932 234.694 27.932C235.242 27.932 235.319 27.8243 235.319 27.0583ZM237.323 27.0583C237.323 26.2911 237.246 26.1834 236.698 26.1834C236.148 26.1834 236.071 26.2911 236.071 27.0583C236.071 27.8243 236.148 27.932 236.698 27.932C237.246 27.932 237.323 27.8243 237.323 27.0583ZM205.949 23.4981C205.02 23.4497 203.497 23.4497 202.568 23.4981C201.637 23.5465 202.398 23.5852 204.258 23.5852C206.118 23.5852 206.879 23.5465 205.949 23.4981ZM242.396 23.4981C241.535 23.4497 240.126 23.4497 239.264 23.4981C238.404 23.5465 239.108 23.5865 240.83 23.5865C242.552 23.5865 243.258 23.5465 242.396 23.4981ZM202.207 22.3715C202.148 21.7519 202.01 21.5583 201.628 21.5583C201.246 21.5583 201.108 21.7519 201.049 22.3715C200.978 23.1012 201.037 23.1835 201.628 23.1835C202.219 23.1835 202.279 23.1012 202.207 22.3715ZM203.957 22.5361C204.041 21.9528 203.42 21.303 203.017 21.5523C202.873 21.6406 202.755 22.052 202.755 22.4659C202.755 23.1036 202.841 23.2065 203.319 23.1387C203.665 23.0891 203.911 22.858 203.957 22.5361ZM205.464 22.3715C205.414 21.85 205.251 21.5583 205.01 21.5583C204.769 21.5583 204.606 21.85 204.556 22.3715C204.49 23.0576 204.56 23.1835 205.01 23.1835C205.46 23.1835 205.53 23.0576 205.464 22.3715ZM207.217 22.3715C207.167 21.85 207.004 21.5583 206.763 21.5583C206.522 21.5583 206.359 21.85 206.31 22.3715C206.243 23.0576 206.313 23.1835 206.763 23.1835C207.213 23.1835 207.284 23.0576 207.217 22.3715ZM238.776 22.5361C238.86 21.9528 238.239 21.303 237.835 21.5523C237.691 21.6406 237.574 22.052 237.574 22.4659C237.574 23.1036 237.66 23.2065 238.138 23.1387C238.485 23.0891 238.73 22.858 238.776 22.5361ZM240.283 22.3715C240.233 21.85 240.069 21.5583 239.828 21.5583C239.588 21.5583 239.424 21.85 239.375 22.3715C239.308 23.0576 239.378 23.1835 239.828 23.1835C240.279 23.1835 240.349 23.0576 240.283 22.3715ZM242.037 22.3715C241.986 21.85 241.823 21.5583 241.582 21.5583C241.341 21.5583 241.178 21.85 241.128 22.3715C241.061 23.0576 241.132 23.1835 241.582 23.1835C242.032 23.1835 242.102 23.0576 242.037 22.3715ZM243.79 22.3897C243.69 21.378 243.163 21.1953 242.834 22.0593C242.532 22.8543 242.687 23.1835 243.367 23.1835C243.779 23.1835 243.854 23.0431 243.79 22.3897Z" fill="#FA8624" fill-opacity="0.6"/>
<path d="M200 36.9315C200 36.7742 201.544 36.681 204.133 36.681C206.721 36.681 208.266 36.7742 208.266 36.9315C208.266 37.0876 206.721 37.1808 204.133 37.1808C201.544 37.1808 200 37.0876 200 36.9315Z" fill="#FA8624" fill-opacity="0.6"/>
<path d="M236.572 38.9367V37.4434L240.643 37.3684L244.714 37.2921L240.643 37.2365C238.133 37.2026 236.572 37.0852 236.572 36.9315C236.572 36.7742 238.117 36.681 240.706 36.681H244.838V40.43H236.572V38.9367ZM238.278 38.9936C238.217 38.2481 238.098 38.0557 237.7 38.0557C237.302 38.0557 237.183 38.2481 237.12 38.9936C237.049 39.8576 237.094 39.9302 237.7 39.9302C238.305 39.9302 238.35 39.8576 238.278 38.9936ZM240.282 38.9936C240.221 38.2481 240.102 38.0557 239.704 38.0557C239.306 38.0557 239.187 38.2481 239.124 38.9936C239.053 39.8576 239.098 39.9302 239.704 39.9302C240.309 39.9302 240.354 39.8576 240.282 38.9936ZM242.286 38.9936C242.224 38.2481 242.106 38.0557 241.708 38.0557C241.31 38.0557 241.191 38.2481 241.129 38.9936C241.057 39.8576 241.101 39.9302 241.708 39.9302C242.313 39.9302 242.358 39.8576 242.286 38.9936ZM244.29 38.9936C244.228 38.2481 244.11 38.0557 243.712 38.0557C243.314 38.0557 243.195 38.2481 243.133 38.9936C243.061 39.8576 243.105 39.9302 243.712 39.9302C244.317 39.9302 244.362 39.8576 244.29 38.9936Z" fill="#FA8624" fill-opacity="0.6"/>
<path d="M208.767 36.9316V33.4319H236.327L236.283 36.9316L236.237 40.43H208.767V36.9316ZM212.274 39.3203C212.274 38.9851 212.171 38.6463 212.045 38.5688C211.911 38.4866 211.928 38.1356 212.087 37.7169C212.422 36.8311 212.216 36.2575 211.436 35.903C210.235 35.3572 208.912 36.9763 209.819 37.8803C210.054 38.1138 210.054 38.247 209.819 38.4805C209.654 38.6463 209.519 39.0396 209.519 39.3554C209.519 39.8854 209.625 39.9302 210.896 39.9302C212.191 39.9302 212.274 39.8927 212.274 39.3203ZM216.282 39.5527C216.282 39.3445 216.146 38.9573 215.981 38.6923C215.743 38.3135 215.751 38.0788 216.018 37.5802C216.299 37.0562 216.301 36.8795 216.028 36.5504C215.439 35.8425 214.853 35.6585 214.172 35.9683C213.373 36.3314 213.128 37.0635 213.545 37.8404C213.793 38.3014 213.799 38.5096 213.571 38.7358C213.409 38.898 213.276 39.2332 213.276 39.4801C213.276 39.8637 213.499 39.9302 214.779 39.9302C215.954 39.9302 216.282 39.8479 216.282 39.5527ZM220.039 39.5394C220.039 39.324 219.918 38.9234 219.772 38.6487C219.577 38.2857 219.584 38.0521 219.8 37.7932C220.559 36.8807 219.144 35.3391 218.073 35.9114C217.265 36.3422 216.961 37.0719 217.338 37.6746C217.591 38.0788 217.593 38.2808 217.344 38.6778C216.706 39.6979 216.926 39.9302 218.536 39.9302C219.733 39.9302 220.039 39.8504 220.039 39.5394ZM223.706 38.1272C223.675 36.4705 223.62 36.2963 223.031 35.9659C222.461 35.6464 222.314 35.6561 221.715 36.0482C221.016 36.5056 220.825 37.3648 221.315 37.8537C221.513 38.0521 221.513 38.2687 221.315 38.6378C220.749 39.693 220.946 39.9302 222.391 39.9302H223.74L223.706 38.1272ZM227.805 39.445C227.805 39.1787 227.692 38.8907 227.554 38.806C227.213 38.5955 227.237 37.7448 227.588 37.6286C228.03 37.481 227.597 36.4705 226.895 36.0119C226.313 35.6307 226.232 35.6368 225.599 36.1051C224.92 36.6097 224.534 37.6806 225.032 37.6806C225.371 37.6806 225.384 38.5991 225.049 38.806C224.911 38.8907 224.799 39.1787 224.799 39.445C224.799 39.8721 224.981 39.9302 226.302 39.9302C227.623 39.9302 227.805 39.8721 227.805 39.445ZM231.562 39.3554C231.562 39.0396 231.427 38.6463 231.262 38.4805C231.028 38.247 231.028 38.1138 231.262 37.8803C231.763 37.3817 231.608 36.4717 230.949 36.0409C230.204 35.5545 229.44 35.7469 228.911 36.554C228.589 37.0429 228.579 37.2244 228.851 37.6601C229.11 38.0739 229.115 38.2808 228.871 38.6705C228.321 39.549 228.727 39.9302 230.212 39.9302C231.454 39.9302 231.562 39.8842 231.562 39.3554ZM235.57 39.6918C235.57 39.5611 235.436 39.1594 235.271 38.7988C235.058 38.3317 235.047 38.0231 235.236 37.7218C235.601 37.1373 235.22 36.2394 234.46 35.8933C233.238 35.3379 231.938 36.9558 232.865 37.8803C233.099 38.1138 233.099 38.247 232.865 38.4805C232.7 38.6463 232.564 39.0396 232.564 39.3554C232.564 39.8915 232.666 39.9302 234.067 39.9302C234.893 39.9302 235.57 39.8237 235.57 39.6918Z" fill="#FA8624" fill-opacity="0.6"/>
<path d="M200 38.9307V37.4313H208.266V40.43H200V38.9307ZM201.706 38.9936C201.645 38.2482 201.525 38.0558 201.127 38.0558C200.728 38.0558 200.61 38.2482 200.548 38.9936C200.477 39.8576 200.522 39.9302 201.127 39.9302C201.733 39.9302 201.778 39.8576 201.706 38.9936ZM203.71 38.9936C203.648 38.2482 203.529 38.0558 203.131 38.0558C202.732 38.0558 202.614 38.2482 202.552 38.9936C202.481 39.8576 202.526 39.9302 203.131 39.9302C203.737 39.9302 203.782 39.8576 203.71 38.9936ZM205.802 39.0553C205.7 38.1392 205.42 37.8162 204.901 38.0146C204.646 38.1126 204.509 38.4781 204.509 39.065C204.509 39.8975 204.56 39.958 205.197 39.8842C205.801 39.8153 205.876 39.7124 205.802 39.0553ZM207.963 39.3034C208.065 38.587 207.472 37.867 206.945 38.0691C206.651 38.1816 206.513 38.5108 206.513 39.0989C206.513 39.8951 206.567 39.9568 207.201 39.8842C207.666 39.831 207.914 39.6422 207.963 39.3034Z" fill="#FA8624" fill-opacity="0.6"/>
<path d="M235.57 42.4303C235.57 42.2923 235.682 42.1798 235.82 42.1798C235.958 42.1798 236.071 42.2923 236.071 42.4303C236.071 42.5682 235.958 42.6796 235.82 42.6796C235.682 42.6796 235.57 42.5682 235.57 42.4303Z" fill="#FA8624" fill-opacity="0.6"/>
<path d="M232.314 49.6789V47.4293H236.071V51.9285H232.314V49.6789ZM235.069 50.0927C235.069 48.2001 233.441 48.1118 233.205 49.9911L233.088 50.9289H234.079C235.035 50.9289 235.069 50.8999 235.069 50.0927Z" fill="#FA8624" fill-opacity="0.6"/>
<path d="M209.018 49.668V47.4075L210.834 47.4813L212.65 47.5539L212.722 49.7418L212.794 51.9284H209.018V49.668ZM211.726 50.0165C211.634 48.9419 211.008 48.4082 210.333 48.8306C210.078 48.9903 209.862 49.4852 209.816 50.0165L209.739 50.9289H211.803L211.726 50.0165Z" fill="#FA8624" fill-opacity="0.6"/>
<path d="M232.314 54.4285V52.1789H236.071V56.6781H232.314V54.4285ZM235.069 54.6875C235.069 53.9336 234.942 53.6274 234.539 53.4132C233.826 53.032 233.313 53.5512 233.201 54.7649C233.116 55.6737 233.12 55.6785 234.092 55.6785C235.064 55.6785 235.069 55.6725 235.069 54.6875Z" fill="#FA8624" fill-opacity="0.6"/>
<path d="M232.314 59.1879V56.9274H236.09L236.019 59.1152L235.946 61.3019L234.13 61.3757L232.314 61.4483V59.1879ZM235.069 59.4359C235.069 58.7135 234.938 58.3759 234.586 58.1871C234.046 57.8991 233.33 58.0806 233.288 58.5162C233.094 60.5383 233.047 60.427 234.096 60.427C235.063 60.427 235.069 60.421 235.069 59.4359Z" fill="#FA8624" fill-opacity="0.6"/>
<path d="M209.018 59.1879V56.9274H212.794L212.722 59.1152L212.649 61.3019L210.834 61.3757L209.018 61.4483V59.1879ZM211.773 59.5702C211.773 59.0983 211.596 58.5368 211.38 58.3202C210.914 57.8555 210.88 57.8519 210.253 58.1859C209.9 58.3759 209.769 58.7123 209.769 59.4359C209.769 60.4258 209.77 60.427 210.771 60.427C211.745 60.427 211.773 60.4028 211.773 59.5702Z" fill="#FA8624" fill-opacity="0.6"/>
<mask id="mask0_85_152" style="mask-type:luminance" maskUnits="userSpaceOnUse" x="236" y="40" width="10" height="26">
<path d="M236.392 40.6635H245.066V65.4466H236.392V40.6635Z" fill="white"/>
</mask>
<g mask="url(#mask0_85_152)">
<path d="M237.573 54.1163C237.571 43.4988 237.551 43.0244 237.073 42.3056C236.799 41.893 236.574 41.3581 236.574 41.1173C236.572 40.718 236.941 40.6805 240.834 40.6805H245.096L244.711 41.5989C244.499 42.1035 244.213 42.6541 244.073 42.8223C243.933 42.9906 243.836 43.2241 243.858 43.3415C243.879 43.4589 243.882 48.4203 243.866 54.3656L243.836 65.1767H237.574L237.573 54.1163ZM242.783 41.2444C241.722 41.1984 239.919 41.1984 238.776 41.2444C237.633 41.2903 238.501 41.3291 240.706 41.3291C242.909 41.3291 243.845 41.2916 242.783 41.2444Z" fill="#FA8624" fill-opacity="0.6"/>
</g>
<path d="M236.321 53.9094C236.321 43.3149 236.348 42.6481 236.759 42.728C237.168 42.8066 237.201 43.5654 237.246 53.9941C237.292 64.9093 237.282 65.1767 236.808 65.1767C236.334 65.1767 236.321 64.8924 236.321 53.9094Z" fill="#FA8624" fill-opacity="0.6"/>
<path d="M232.314 61.6771H236.071V65.1767H232.314V61.6771Z" fill="#FA8624" fill-opacity="0.6"/>
<path d="M228.357 46.8799C227.601 46.126 228.351 45.0114 229.43 45.2813C229.92 45.4047 230.059 45.5984 230.059 46.1574C230.059 47.1062 229.023 47.5454 228.357 46.8799Z" fill="#FA8624" fill-opacity="0.6"/>
<path d="M215.039 46.8169C214.374 46.0158 215.351 44.7876 216.219 45.3333C217.087 45.8779 216.778 47.1788 215.781 47.1788C215.539 47.1788 215.205 47.0166 215.039 46.8169Z" fill="#FA8624" fill-opacity="0.6"/>
<path d="M212.974 58.7402C212.946 55.1994 212.885 53.2874 212.839 54.4903L212.756 56.6781H209.018V52.179H213.026L212.975 47.6168C212.947 45.1083 212.885 43.9829 212.839 45.1168L212.755 47.18H209.018V44.9425C209.018 43.2181 208.932 42.6566 208.644 42.4957C208.33 42.3214 208.32 42.1556 208.574 41.484L208.877 40.6805H222.599C233.409 40.6805 236.323 40.7471 236.325 40.9927C236.328 41.1645 236.403 41.5869 236.493 41.9305C236.645 42.4993 236.62 42.5235 236.226 42.2004C235.845 41.8882 235.729 41.9148 235.243 42.4231C234.941 42.7401 234.825 42.9265 234.984 42.8381C235.144 42.751 235.454 42.7474 235.673 42.8309C235.994 42.9543 236.071 43.3948 236.071 45.0817V47.18H232.28L232.36 44.8046C232.403 43.4976 232.35 42.4594 232.241 42.4957C232.132 42.532 232.05 47.658 232.058 53.8864L232.073 65.2106L231.446 65.1308L230.82 65.0521L230.745 58.6772C230.663 51.5545 230.583 51.16 228.954 49.7321C228.444 49.2844 226.78 48.2957 225.257 47.5333L222.489 46.1478L219.926 47.4123C214.243 50.2162 214.291 50.1206 214.284 58.7402L214.278 65.1768H213.026L212.974 58.7402ZM211.773 54.8424C211.773 54.3233 211.583 53.8344 211.272 53.5536C210.788 53.1168 210.754 53.1168 210.27 53.5536C209.959 53.8344 209.769 54.3233 209.769 54.8424C209.769 55.6508 209.802 55.6774 210.771 55.6774C211.741 55.6774 211.773 55.6508 211.773 54.8424ZM216.64 47.036C217.147 46.5302 217.14 45.9614 216.618 45.3866C216.11 44.8263 215.446 44.8009 214.922 45.3225C214.163 46.08 214.713 47.4293 215.781 47.4293C216.036 47.4293 216.424 47.2526 216.64 47.036ZM230.047 47.0699C230.993 45.9312 229.408 44.3096 228.313 45.2983C227.697 45.8549 227.668 46.3644 228.22 46.9719C228.716 47.52 229.632 47.5684 230.047 47.0699ZM211.725 45.3927C211.676 44.7392 211.485 44.254 211.209 44.0821C210.497 43.6356 209.907 44.1922 209.818 45.3927L209.74 46.4297H211.802L211.725 45.3927ZM235.069 45.4798C235.069 44.4512 234.721 43.9296 234.032 43.9296C233.468 43.9296 233.319 44.1922 233.191 45.4217L233.086 46.4297H234.078C235.059 46.4297 235.069 46.42 235.069 45.4798ZM209.868 42.6385C209.798 42.5235 209.634 42.4303 209.504 42.4303C209.375 42.4303 209.268 42.5235 209.268 42.6385C209.268 42.7534 209.433 42.8466 209.633 42.8466C209.833 42.8466 209.94 42.7534 209.868 42.6385ZM210.896 42.6796C210.811 42.5429 210.608 42.4315 210.443 42.4339C210.264 42.4364 210.294 42.5344 210.521 42.6796C211.002 42.9906 211.088 42.9906 210.896 42.6796ZM212.024 42.82C212.024 42.7595 211.911 42.6397 211.773 42.555C211.635 42.4702 211.523 42.5199 211.523 42.6651C211.523 42.8115 211.635 42.9301 211.773 42.9301C211.911 42.9301 212.024 42.8805 212.024 42.82ZM213.026 42.82C213.026 42.7595 212.913 42.6397 212.775 42.555C212.637 42.4702 212.525 42.5199 212.525 42.6651C212.525 42.8115 212.637 42.9301 212.775 42.9301C212.913 42.9301 213.026 42.8805 213.026 42.82ZM214.028 42.6796C214.028 42.5429 213.908 42.4303 213.763 42.4303C213.616 42.4303 213.567 42.5429 213.652 42.6796C213.737 42.8176 213.857 42.9301 213.918 42.9301C213.978 42.9301 214.028 42.8176 214.028 42.6796ZM214.837 42.4303C214.541 42.1556 214.153 41.9342 213.976 41.9378C213.784 41.9426 213.833 42.0503 214.095 42.2028C214.34 42.3444 214.474 42.5671 214.394 42.6953C214.314 42.8248 214.502 42.9301 214.812 42.9301H215.374L214.837 42.4303ZM216.032 42.6796C216.032 42.5429 215.912 42.4303 215.767 42.4303C215.62 42.4303 215.571 42.5429 215.656 42.6796C215.741 42.8176 215.861 42.9301 215.921 42.9301C215.982 42.9301 216.032 42.8176 216.032 42.6796ZM216.909 42.6796C216.994 42.5429 216.95 42.4303 216.812 42.4303C216.675 42.4303 216.493 42.5429 216.408 42.6796C216.322 42.8176 216.366 42.9301 216.504 42.9301C216.64 42.9301 216.823 42.8176 216.909 42.6796ZM219.123 42.6167C219.053 42.5029 218.792 42.4739 218.541 42.5537C218.292 42.6324 217.916 42.5247 217.704 42.3141C217.493 42.1024 217.227 41.9342 217.115 41.939C217.001 41.9439 217.171 42.1665 217.495 42.4339C218.054 42.8986 219.391 43.0487 219.123 42.6167ZM220.139 42.6385C220.068 42.5235 219.904 42.4303 219.774 42.4303C219.645 42.4303 219.538 42.5235 219.538 42.6385C219.538 42.7534 219.703 42.8466 219.903 42.8466C220.104 42.8466 220.21 42.7534 220.139 42.6385ZM220.917 42.6796C221.001 42.5429 221.015 42.4303 220.946 42.4303C220.877 42.4303 220.751 42.5429 220.666 42.6796C220.58 42.8176 220.567 42.9301 220.636 42.9301C220.705 42.9301 220.831 42.8176 220.917 42.6796ZM221.959 42.388C221.801 42.1363 221.502 41.9342 221.294 41.9378C220.998 41.9439 221.011 42.0007 221.36 42.2028C221.604 42.3444 221.749 42.5477 221.684 42.6542C221.619 42.7595 221.718 42.8466 221.905 42.8466C222.173 42.8466 222.185 42.7486 221.96 42.388H221.959ZM223.177 42.4787C223.1 42.4013 222.898 42.4787 222.728 42.6493C222.483 42.8962 222.512 42.9253 222.869 42.7885C223.116 42.6953 223.255 42.555 223.177 42.4787ZM224.298 42.6796C224.298 42.5429 224.191 42.4303 224.062 42.4303C223.932 42.4303 223.757 42.5429 223.672 42.6796C223.586 42.8176 223.693 42.9301 223.907 42.9301C224.122 42.9301 224.298 42.8176 224.298 42.6796ZM225.175 42.6796C225.26 42.5429 225.216 42.4303 225.08 42.4303C224.942 42.4303 224.759 42.5429 224.674 42.6796C224.588 42.8176 224.632 42.9301 224.77 42.9301C224.908 42.9301 225.089 42.8176 225.175 42.6796ZM226.302 42.6796C226.302 42.5429 226.189 42.4303 226.051 42.4303C225.913 42.4303 225.801 42.5429 225.801 42.6796C225.801 42.8176 225.913 42.9301 226.051 42.9301C226.189 42.9301 226.302 42.8176 226.302 42.6796ZM227.43 42.6796C227.344 42.5429 227.162 42.4303 227.024 42.4303C226.886 42.4303 226.843 42.5429 226.929 42.6796C227.013 42.8176 227.196 42.9301 227.334 42.9301C227.471 42.9301 227.514 42.8176 227.43 42.6796ZM228.432 42.6796C228.346 42.5429 228.17 42.4303 228.041 42.4303C227.911 42.4303 227.805 42.5429 227.805 42.6796C227.805 42.8176 227.98 42.9301 228.196 42.9301C228.41 42.9301 228.516 42.8176 228.432 42.6796ZM229.443 42.6953C229.362 42.5671 229.496 42.3444 229.741 42.2028C230.017 42.0431 230.059 41.9426 229.853 41.9378C229.438 41.9281 228.776 42.5671 228.986 42.7752C229.231 43.0208 229.603 42.9555 229.443 42.6953ZM230.409 42.6385C230.339 42.5235 230.174 42.4303 230.045 42.4303C229.915 42.4303 229.809 42.5235 229.809 42.6385C229.809 42.7534 229.973 42.8466 230.174 42.8466C230.374 42.8466 230.48 42.7534 230.409 42.6385ZM231.562 42.6796C231.562 42.5429 231.444 42.4303 231.297 42.4303C231.151 42.4303 231.101 42.5429 231.187 42.6796C231.272 42.8176 231.391 42.9301 231.452 42.9301C231.513 42.9301 231.562 42.8176 231.562 42.6796ZM233.566 42.6385C233.566 42.5235 233.461 42.4303 233.33 42.4303C233.201 42.4303 233.037 42.5235 232.966 42.6385C232.894 42.7534 233.001 42.8466 233.202 42.8466C233.403 42.8466 233.566 42.7534 233.566 42.6385ZM234.443 42.6796C234.528 42.5429 234.478 42.4303 234.332 42.4303C234.187 42.4303 234.067 42.5429 234.067 42.6796C234.067 42.8176 234.117 42.9301 234.177 42.9301C234.239 42.9301 234.357 42.8176 234.443 42.6796ZM212.4 42.1798C212.485 42.0431 212.372 41.9305 212.148 41.9305C211.926 41.9305 211.813 42.0431 211.898 42.1798C211.984 42.3178 212.096 42.4303 212.148 42.4303C212.202 42.4303 212.314 42.3178 212.4 42.1798ZM209.451 42.0298C209.367 41.9463 209.152 41.9378 208.971 42.0092C208.771 42.0891 208.83 42.1484 209.122 42.1605C209.386 42.1714 209.534 42.1121 209.451 42.0298ZM210.453 42.0298C210.369 41.9463 210.154 41.9378 209.973 42.0092C209.773 42.0891 209.832 42.1484 210.124 42.1605C210.388 42.1714 210.536 42.1121 210.453 42.0298ZM211.455 42.0298C211.371 41.9463 211.156 41.9378 210.975 42.0092C210.775 42.0891 210.834 42.1484 211.126 42.1605C211.39 42.1714 211.538 42.1121 211.455 42.0298ZM213.459 42.0298C213.375 41.9463 213.16 41.9378 212.978 42.0092C212.779 42.0891 212.838 42.1484 213.13 42.1605C213.394 42.1714 213.542 42.1121 213.459 42.0298ZM215.447 42.014C215.355 41.9221 215.205 41.9221 215.113 42.014C215.021 42.1048 215.096 42.1798 215.28 42.1798C215.464 42.1798 215.539 42.1048 215.447 42.014ZM216.449 42.014C216.357 41.9221 216.207 41.9221 216.115 42.014C216.023 42.1048 216.098 42.1798 216.282 42.1798C216.466 42.1798 216.541 42.1048 216.449 42.014ZM218.453 42.014C218.361 41.9221 218.211 41.9221 218.119 42.014C218.027 42.1048 218.102 42.1798 218.286 42.1798C218.47 42.1798 218.545 42.1048 218.453 42.014ZM219.721 42.0298C219.638 41.9463 219.422 41.9378 219.241 42.0092C219.041 42.0891 219.1 42.1484 219.392 42.1605C219.657 42.1714 219.805 42.1121 219.721 42.0298ZM220.723 42.0298C220.64 41.9463 220.424 41.9378 220.243 42.0092C220.043 42.0891 220.102 42.1484 220.394 42.1605C220.659 42.1714 220.807 42.1121 220.723 42.0298ZM222.727 42.0298C222.644 41.9463 222.428 41.9378 222.247 42.0092C222.047 42.0891 222.106 42.1484 222.398 42.1605C222.663 42.1714 222.811 42.1121 222.727 42.0298ZM223.729 42.0298C223.646 41.9463 223.43 41.9378 223.249 42.0092C223.049 42.0891 223.108 42.1484 223.4 42.1605C223.665 42.1714 223.813 42.1121 223.729 42.0298ZM224.715 42.014C224.623 41.9221 224.473 41.9221 224.381 42.014C224.289 42.1048 224.364 42.1798 224.548 42.1798C224.732 42.1798 224.807 42.1048 224.715 42.014ZM225.717 42.014C225.625 41.9221 225.475 41.9221 225.383 42.014C225.291 42.1048 225.366 42.1798 225.55 42.1798C225.734 42.1798 225.809 42.1048 225.717 42.014ZM226.719 42.014C226.627 41.9221 226.477 41.9221 226.385 42.014C226.293 42.1048 226.368 42.1798 226.552 42.1798C226.736 42.1798 226.811 42.1048 226.719 42.014ZM227.721 42.014C227.629 41.9221 227.479 41.9221 227.387 42.014C227.295 42.1048 227.37 42.1798 227.554 42.1798C227.738 42.1798 227.813 42.1048 227.721 42.014ZM228.989 42.0298C228.906 41.9463 228.691 41.9378 228.509 42.0092C228.309 42.0891 228.369 42.1484 228.66 42.1605C228.925 42.1714 229.073 42.1121 228.989 42.0298ZM230.993 42.0298C230.91 41.9463 230.694 41.9378 230.513 42.0092C230.313 42.0891 230.373 42.1484 230.664 42.1605C230.929 42.1714 231.077 42.1121 230.993 42.0298ZM231.995 42.0298C231.912 41.9463 231.696 41.9378 231.515 42.0092C231.315 42.0891 231.375 42.1484 231.666 42.1605C231.931 42.1714 232.079 42.1121 231.995 42.0298ZM232.997 42.0298C232.914 41.9463 232.698 41.9378 232.517 42.0092C232.317 42.0891 232.377 42.1484 232.668 42.1605C232.933 42.1714 233.081 42.1121 232.997 42.0298ZM233.984 42.014C233.892 41.9221 233.742 41.9221 233.65 42.014C233.558 42.1048 233.633 42.1798 233.817 42.1798C234 42.1798 234.076 42.1048 233.984 42.014ZM234.986 42.014C234.894 41.9221 234.743 41.9221 234.652 42.014C234.56 42.1048 234.635 42.1798 234.819 42.1798C235.002 42.1798 235.077 42.1048 234.986 42.014Z" fill="#FA8624" fill-opacity="0.6"/>
<path d="M209.018 61.6771H212.775V65.1767H209.018V61.6771Z" fill="#FA8624" fill-opacity="0.6"/>
<path d="M207.765 53.9094C207.765 43.3149 207.792 42.6481 208.203 42.728C208.612 42.8066 208.646 43.5726 208.707 53.9941C208.772 65.0509 208.767 65.1767 208.269 65.1767C207.771 65.1767 207.765 65.0291 207.765 53.9094Z" fill="#FA8624" fill-opacity="0.6"/>
<path d="M201.001 54.1151C200.999 43.5025 200.98 43.0221 200.5 42.2367C199.551 40.6829 199.557 40.6805 204.132 40.6805C207.906 40.6805 208.265 40.7192 208.258 41.1173C208.253 41.3582 208.087 41.8362 207.89 42.1798C207.595 42.6953 207.53 44.7646 207.523 53.9905L207.515 65.1768H201.002L201.001 54.1151ZM206.211 41.2444C205.15 41.1984 203.347 41.1972 202.203 41.2444C201.06 41.2904 201.929 41.3291 204.132 41.3291C206.337 41.3291 207.273 41.2916 206.211 41.2444Z" fill="#FA8624" fill-opacity="0.6"/>
<path d="M29.5444 7.91512L29.5444 7.91511C32.2354 7.43895 35.2955 7.16554 38.5011 7.15064C41.7066 7.13575 45.0485 7.37937 48.2684 7.91537C53.3204 8.75738 57.5414 12.5389 57.5414 17.5382V35.4367C57.5414 40.6054 53.4335 44.8384 48.2931 44.8384H29.5183C23.0606 44.8384 17.6258 50.3784 17.6258 56.6651V65.1029H11.3131C8.62213 65.1029 6.49737 64.1279 4.87796 62.4699C3.25518 60.8085 2.13316 58.4538 1.4691 55.688L1.46906 55.6879C0.5696 51.9571 0.140638 48.9838 0.150155 46.0533C0.159672 43.1227 0.607698 40.2282 1.46906 36.6548L1.46912 36.6546C2.94865 30.4778 7.67011 27.2399 13.0657 27.2399H20.1199H38.9166H39.0666V27.0899V24.702V24.552H38.9166H20.2699V17.5382C20.2699 14.834 20.6315 12.7894 21.9504 11.243C23.2712 9.69451 25.5775 8.61593 29.5444 7.91512ZM32.0124 16.3552C32.0124 14.2935 30.3622 12.6123 28.3353 12.6123C26.3012 12.6123 24.6581 14.2937 24.6581 16.3552C24.6581 18.4107 26.3022 20.0761 28.3353 20.0761C30.3612 20.0761 32.0124 18.4109 32.0124 16.3552Z" fill="url(#paint0_linear_85_152)" stroke="black" stroke-width="0.3"/>
<path d="M48.2514 84.2123L48.2513 84.2123C41.1619 86.2694 35.4854 85.9546 29.5607 84.2125C24.6043 82.7547 20.27 79.7907 20.27 74.8047V56.9062C20.27 51.8358 24.4615 47.5045 29.5183 47.5045H48.2931C54.6332 47.5045 60.1856 41.9897 60.1856 35.4368V27.24H67.0898C69.7813 27.24 71.7524 28.2441 73.2212 29.9146C74.6954 31.5912 75.67 33.9469 76.3426 36.656L76.3426 36.656C78.217 44.1908 78.2967 49.8226 76.3459 55.6758L76.3458 55.6759C75.3961 58.535 74.4196 60.8921 73.0112 62.5352C71.6115 64.1684 69.779 65.103 67.0898 65.103H57.6915H38.9167H38.7667V65.253V67.6409V67.7909H38.9167H57.5415V74.8047C57.5415 77.4672 56.3987 79.4733 54.6681 80.988C52.9331 82.5064 50.6069 83.5303 48.2514 84.2123ZM53.1533 75.9877C53.1533 73.9322 51.5092 72.2668 49.4761 72.2668C47.4502 72.2668 45.799 73.932 45.799 75.9877C45.799 78.0494 47.4492 79.7305 49.4761 79.7305C51.5102 79.7305 53.1533 78.0492 53.1533 75.9877Z" fill="url(#paint1_linear_85_152)" stroke="black" stroke-width="0.3"/>
<path d="M82.6667 60V35H90.2222C91.963 35 93.4352 35.2593 94.6389 35.7778C95.8611 36.2963 96.8426 36.9815 97.5833 37.8333C98.3241 38.6667 98.8611 39.5833 99.1944 40.5833C99.5463 41.5648 99.7222 42.537 99.7222 43.5C99.7222 44.4444 99.5556 45.4167 99.2222 46.4167C98.8889 47.3981 98.3426 48.3148 97.5833 49.1667C96.8426 50 95.8704 50.6759 94.6667 51.1944C93.463 51.713 91.9815 51.9722 90.2222 51.9722H87.5V60H82.6667ZM87.5 47.6389H89.9444C91.1296 47.6389 92.0648 47.4352 92.75 47.0278C93.4537 46.6019 93.9537 46.0741 94.25 45.4444C94.5648 44.8148 94.7222 44.1667 94.7222 43.5C94.7222 42.8519 94.5741 42.213 94.2778 41.5833C93.9815 40.9352 93.4815 40.3981 92.7778 39.9722C92.0926 39.5463 91.1481 39.3333 89.9444 39.3333H87.5V47.6389ZM101.964 68.3333L107.519 57.1667L100.714 43.3333H106.047L108.991 49.4444C109.251 50 109.473 50.5093 109.658 50.9722C109.862 51.4167 110.028 51.8519 110.158 52.2778C110.306 51.8519 110.482 51.4167 110.686 50.9722C110.889 50.5093 111.13 50 111.408 49.4444L114.408 43.3333H119.547L107.158 68.3333H101.964ZM134.449 60.5C132.615 60.5 130.902 60.1667 129.31 59.5C127.717 58.8148 126.31 57.8796 125.088 56.6944C123.884 55.5093 122.94 54.1296 122.254 52.5556C121.569 50.9815 121.227 49.2963 121.227 47.5C121.227 45.7037 121.569 44.0185 122.254 42.4444C122.94 40.8704 123.884 39.4907 125.088 38.3056C126.31 37.1204 127.717 36.1944 129.31 35.5278C130.902 34.8426 132.615 34.5 134.449 34.5C136.097 34.5 137.652 34.7685 139.115 35.3056C140.578 35.8426 141.884 36.6019 143.032 37.5833L141.615 43.4167C140.93 42.2685 139.986 41.3056 138.782 40.5278C137.578 39.7315 136.19 39.3333 134.615 39.3333C133.486 39.3333 132.43 39.5463 131.449 39.9722C130.486 40.3981 129.643 40.9815 128.921 41.7222C128.199 42.463 127.634 43.3333 127.227 44.3333C126.819 45.3148 126.615 46.3704 126.615 47.5C126.615 48.6296 126.819 49.6944 127.227 50.6944C127.634 51.6759 128.199 52.537 128.921 53.2778C129.643 54.0185 130.486 54.6019 131.449 55.0278C132.43 55.4537 133.486 55.6667 134.615 55.6667C136.171 55.6667 137.551 55.2778 138.754 54.5C139.977 53.7037 140.93 52.7315 141.615 51.5833L143.032 57.4167C141.865 58.3796 140.551 59.1389 139.088 59.6944C137.643 60.2315 136.097 60.5 134.449 60.5ZM153.906 60.5556C152.666 60.5556 151.499 60.3241 150.406 59.8611C149.314 59.3981 148.351 58.7593 147.517 57.9444C146.703 57.1296 146.064 56.1852 145.601 55.1111C145.138 54.037 144.906 52.8889 144.906 51.6667C144.906 50.4444 145.138 49.2963 145.601 48.2222C146.064 47.1481 146.703 46.2037 147.517 45.3889C148.351 44.5741 149.314 43.9352 150.406 43.4722C151.499 43.0093 152.666 42.7778 153.906 42.7778C155.147 42.7778 156.314 43.0093 157.406 43.4722C158.499 43.9352 159.453 44.5741 160.267 45.3889C161.101 46.2037 161.749 47.1481 162.212 48.2222C162.675 49.2963 162.906 50.4444 162.906 51.6667C162.906 52.8889 162.675 54.037 162.212 55.1111C161.749 56.1852 161.101 57.1296 160.267 57.9444C159.453 58.7593 158.499 59.3981 157.406 59.8611C156.314 60.3241 155.147 60.5556 153.906 60.5556ZM153.906 56.2222C154.74 56.2222 155.49 56.0185 156.156 55.6111C156.841 55.2037 157.378 54.6574 157.767 53.9722C158.175 53.2685 158.378 52.5 158.378 51.6667C158.378 50.8148 158.175 50.0463 157.767 49.3611C157.378 48.6759 156.841 48.1296 156.156 47.7222C155.49 47.3148 154.74 47.1111 153.906 47.1111C153.073 47.1111 152.314 47.3148 151.628 47.7222C150.962 48.1296 150.425 48.6759 150.017 49.3611C149.628 50.0463 149.434 50.8148 149.434 51.6667C149.434 52.5 149.628 53.2685 150.017 53.9722C150.425 54.6574 150.962 55.2037 151.628 55.6111C152.314 56.0185 153.073 56.2222 153.906 56.2222ZM165.74 60V43.3333H170.073V45.1667C170.666 44.3889 171.397 43.7963 172.267 43.3889C173.138 42.9815 174.073 42.7778 175.073 42.7778C176.258 42.7778 177.36 43.0648 178.378 43.6389C179.416 44.1944 180.249 45.0185 180.878 46.1111C181.527 47.1852 181.851 48.4907 181.851 50.0278V60H177.017V50.6667C177.017 49.7407 176.74 48.9167 176.184 48.1944C175.628 47.4722 174.832 47.1111 173.795 47.1111C173.24 47.1111 172.712 47.2407 172.212 47.5C171.73 47.7407 171.332 48.1204 171.017 48.6389C170.721 49.1389 170.573 49.7963 170.573 50.6111V60H165.74ZM187.137 60V47.1667H184.026V43.3333H187.22V39.0833C187.22 37.75 187.48 36.6389 187.998 35.75C188.535 34.8426 189.258 34.1574 190.165 33.6944C191.091 33.2315 192.119 33 193.248 33C193.878 33 194.48 33.0741 195.054 33.2222C195.646 33.3519 196.165 33.5648 196.609 33.8611L195.665 37.7778C195.387 37.4259 195.082 37.1667 194.748 37C194.433 36.8333 194.091 36.75 193.72 36.75C193.424 36.75 193.137 36.8241 192.859 36.9722C192.582 37.1019 192.35 37.3241 192.165 37.6389C191.98 37.9537 191.887 38.3981 191.887 38.9722V43.3333H195.193V47.1667H191.97V60H187.137Z" fill="#018B87"/>
<g filter="url(#filter0_d_85_152)">
<rect width="100" height="19" transform="translate(145 67)" fill="#FA8624"/>
<path d="M152.43 81V72.875H153.874V75.484H156.348V72.875H157.792V81H156.348V76.8201H153.874V81H152.43ZM159.229 83.7083L161.026 80.1062L158.787 75.5833H160.367L161.378 77.6597C161.462 77.8463 161.54 78.0208 161.613 78.1833C161.685 78.3458 161.748 78.5144 161.802 78.6889C161.868 78.5144 161.938 78.3458 162.01 78.1833C162.082 78.0208 162.163 77.8463 162.253 77.6597L163.283 75.5833H164.799L160.764 83.7083H159.229ZM167.68 81.1264C167.301 81.1264 166.946 81.0542 166.615 80.9097C166.29 80.7593 166.004 80.5546 165.757 80.2958C165.51 80.037 165.315 79.7361 165.17 79.3931C165.032 79.05 164.963 78.6829 164.963 78.2917C164.963 77.9005 165.032 77.5333 165.17 77.1903C165.315 76.8472 165.51 76.5463 165.757 76.2875C166.004 76.0287 166.29 75.8271 166.615 75.6826C166.946 75.5322 167.301 75.4569 167.68 75.4569C167.987 75.4569 168.27 75.5051 168.529 75.6014C168.793 75.6917 169.031 75.8241 169.242 75.9986V72.3333H170.668V81H169.422V80.4222C169.206 80.6389 168.947 80.8104 168.646 80.9368C168.351 81.0632 168.029 81.1264 167.68 81.1264ZM167.843 79.8715C168.131 79.8715 168.39 79.7993 168.619 79.6549C168.854 79.5104 169.04 79.3208 169.179 79.0861C169.317 78.8454 169.386 78.5806 169.386 78.2917C169.386 78.0028 169.317 77.741 169.179 77.5062C169.04 77.2655 168.854 77.0729 168.619 76.9285C168.39 76.784 168.134 76.7118 167.852 76.7118C167.563 76.7118 167.301 76.784 167.066 76.9285C166.837 77.0729 166.654 77.2655 166.515 77.5062C166.377 77.741 166.308 78.0028 166.308 78.2917C166.308 78.5806 166.377 78.8454 166.515 79.0861C166.654 79.3208 166.837 79.5104 167.066 79.6549C167.301 79.7993 167.56 79.8715 167.843 79.8715ZM174.743 81.1625C174.291 81.1625 173.879 81.0903 173.506 80.9458C173.139 80.8014 172.817 80.5998 172.54 80.341C172.269 80.0762 172.058 79.7662 171.908 79.4111C171.763 79.05 171.691 78.6588 171.691 78.2375C171.691 77.8343 171.763 77.4611 171.908 77.1181C172.052 76.775 172.254 76.4771 172.513 76.2243C172.772 75.9715 173.069 75.7759 173.406 75.6375C173.75 75.4931 174.117 75.4208 174.508 75.4208C175.037 75.4208 175.51 75.5412 175.925 75.7819C176.347 76.0227 176.678 76.3537 176.918 76.775C177.165 77.1903 177.288 77.6627 177.288 78.1924V78.7069H173.93C173.78 78.7069 173.632 78.6979 173.488 78.6799C173.343 78.6618 173.199 78.6407 173.054 78.6167C173.103 78.8815 173.202 79.1162 173.352 79.3208C173.509 79.5194 173.707 79.6759 173.948 79.7903C174.195 79.8986 174.469 79.9528 174.77 79.9528C175.113 79.9528 175.423 79.8836 175.7 79.7451C175.982 79.6007 176.211 79.4201 176.386 79.2035L176.711 80.5396C176.446 80.7442 176.142 80.8977 175.799 81C175.462 81.1083 175.11 81.1625 174.743 81.1625ZM173.018 77.741C173.169 77.7109 173.319 77.6898 173.47 77.6778C173.626 77.6597 173.78 77.6507 173.93 77.6507H175.095C175.257 77.6507 175.411 77.6567 175.555 77.6688C175.7 77.6748 175.838 77.6928 175.97 77.7229C175.91 77.4882 175.811 77.2866 175.672 77.1181C175.534 76.9435 175.365 76.8111 175.167 76.7208C174.968 76.6245 174.746 76.5764 174.499 76.5764C174.258 76.5764 174.035 76.6275 173.831 76.7299C173.632 76.8262 173.464 76.9616 173.325 77.1361C173.187 77.3046 173.084 77.5062 173.018 77.741ZM178.261 81V75.5833H179.552V76.5312C179.738 76.2123 179.979 75.9655 180.274 75.791C180.569 75.6164 180.915 75.5292 181.312 75.5292L181.628 76.8201C181.568 76.8021 181.505 76.79 181.438 76.784C181.372 76.772 181.306 76.766 181.24 76.766C180.927 76.766 180.653 76.8352 180.418 76.9736C180.19 77.106 180.009 77.3016 179.877 77.5604C179.75 77.8132 179.687 78.1231 179.687 78.4903V81H178.261ZM184.632 81.1264C184.259 81.1264 183.907 81.0542 183.576 80.9097C183.251 80.7593 182.965 80.5546 182.718 80.2958C182.471 80.037 182.276 79.7361 182.131 79.3931C181.993 79.05 181.924 78.6829 181.924 78.2917C181.924 77.9005 181.993 77.5333 182.131 77.1903C182.276 76.8472 182.471 76.5463 182.718 76.2875C182.965 76.0287 183.251 75.8271 183.576 75.6826C183.907 75.5322 184.259 75.4569 184.632 75.4569C184.987 75.4569 185.312 75.5201 185.607 75.6465C185.908 75.7729 186.167 75.9475 186.383 76.1701V75.5833H187.629V81H186.383V80.4132C186.167 80.6359 185.908 80.8104 185.607 80.9368C185.312 81.0632 184.987 81.1264 184.632 81.1264ZM184.803 79.8715C185.092 79.8715 185.351 79.7993 185.58 79.6549C185.815 79.5104 186.001 79.3208 186.14 79.0861C186.278 78.8454 186.347 78.5806 186.347 78.2917C186.347 78.0028 186.278 77.741 186.14 77.5062C186.001 77.2655 185.815 77.0729 185.58 76.9285C185.351 76.784 185.095 76.7118 184.812 76.7118C184.524 76.7118 184.262 76.784 184.027 76.9285C183.798 77.0729 183.615 77.2655 183.476 77.5062C183.338 77.741 183.269 78.0028 183.269 78.2917C183.269 78.5806 183.338 78.8454 183.476 79.0861C183.615 79.3208 183.798 79.5104 184.027 79.6549C184.262 79.7993 184.521 79.8715 184.803 79.8715ZM191.938 81.1264C191.589 81.1264 191.267 81.0632 190.972 80.9368C190.677 80.8104 190.419 80.6389 190.196 80.4222V81H188.95V72.3333H190.376V75.9986C190.587 75.8241 190.822 75.6917 191.081 75.6014C191.345 75.5051 191.631 75.4569 191.938 75.4569C192.317 75.4569 192.669 75.5322 192.994 75.6826C193.319 75.8271 193.605 76.0287 193.852 76.2875C194.105 76.5463 194.301 76.8472 194.439 77.1903C194.577 77.5333 194.647 77.9005 194.647 78.2917C194.647 78.6829 194.577 79.05 194.439 79.3931C194.301 79.7361 194.105 80.037 193.852 80.2958C193.605 80.5546 193.319 80.7593 192.994 80.9097C192.669 81.0542 192.317 81.1264 191.938 81.1264ZM191.767 79.8715C192.056 79.8715 192.314 79.7993 192.543 79.6549C192.778 79.5104 192.964 79.3208 193.103 79.0861C193.241 78.8454 193.31 78.5806 193.31 78.2917C193.31 78.0028 193.241 77.741 193.103 77.5062C192.964 77.2655 192.778 77.0729 192.543 76.9285C192.314 76.784 192.059 76.7118 191.776 76.7118C191.487 76.7118 191.225 76.784 190.99 76.9285C190.762 77.0729 190.578 77.2655 190.44 77.5062C190.301 77.741 190.232 78.0028 190.232 78.2917C190.232 78.5806 190.301 78.8454 190.44 79.0861C190.578 79.3208 190.762 79.5104 190.99 79.6549C191.225 79.7993 191.484 79.8715 191.767 79.8715ZM198.089 81.1264C197.716 81.1264 197.364 81.0542 197.033 80.9097C196.708 80.7593 196.422 80.5546 196.175 80.2958C195.928 80.037 195.733 79.7361 195.588 79.3931C195.45 79.05 195.381 78.6829 195.381 78.2917C195.381 77.9005 195.45 77.5333 195.588 77.1903C195.733 76.8472 195.928 76.5463 196.175 76.2875C196.422 76.0287 196.708 75.8271 197.033 75.6826C197.364 75.5322 197.716 75.4569 198.089 75.4569C198.444 75.4569 198.769 75.5201 199.064 75.6465C199.365 75.7729 199.624 75.9475 199.84 76.1701V75.5833H201.086V81H199.84V80.4132C199.624 80.6359 199.365 80.8104 199.064 80.9368C198.769 81.0632 198.444 81.1264 198.089 81.1264ZM198.261 79.8715C198.549 79.8715 198.808 79.7993 199.037 79.6549C199.272 79.5104 199.458 79.3208 199.597 79.0861C199.735 78.8454 199.804 78.5806 199.804 78.2917C199.804 78.0028 199.735 77.741 199.597 77.5062C199.458 77.2655 199.272 77.0729 199.037 76.9285C198.808 76.784 198.552 76.7118 198.27 76.7118C197.981 76.7118 197.719 76.784 197.484 76.9285C197.255 77.0729 197.072 77.2655 196.933 77.5062C196.795 77.741 196.726 78.0028 196.726 78.2917C196.726 78.5806 196.795 78.8454 196.933 79.0861C197.072 79.3208 197.255 79.5104 197.484 79.6549C197.719 79.7993 197.978 79.8715 198.261 79.8715ZM204.827 81.1264C204.447 81.1264 204.092 81.0542 203.761 80.9097C203.436 80.7593 203.15 80.5546 202.904 80.2958C202.657 80.037 202.461 79.7361 202.317 79.3931C202.178 79.05 202.109 78.6829 202.109 78.2917C202.109 77.9005 202.178 77.5333 202.317 77.1903C202.461 76.8472 202.657 76.5463 202.904 76.2875C203.15 76.0287 203.436 75.8271 203.761 75.6826C204.092 75.5322 204.447 75.4569 204.827 75.4569C205.133 75.4569 205.416 75.5051 205.675 75.6014C205.94 75.6917 206.178 75.8241 206.388 75.9986V72.3333H207.815V81H206.569V80.4222C206.352 80.6389 206.093 80.8104 205.792 80.9368C205.498 81.0632 205.176 81.1264 204.827 81.1264ZM204.989 79.8715C205.278 79.8715 205.537 79.7993 205.765 79.6549C206 79.5104 206.187 79.3208 206.325 79.0861C206.464 78.8454 206.533 78.5806 206.533 78.2917C206.533 78.0028 206.464 77.741 206.325 77.5062C206.187 77.2655 206 77.0729 205.765 76.9285C205.537 76.784 205.281 76.7118 204.998 76.7118C204.709 76.7118 204.447 76.784 204.213 76.9285C203.984 77.0729 203.8 77.2655 203.662 77.5062C203.524 77.741 203.454 78.0028 203.454 78.2917C203.454 78.5806 203.524 78.8454 203.662 79.0861C203.8 79.3208 203.984 79.5104 204.213 79.6549C204.447 79.7993 204.706 79.8715 204.989 79.8715ZM212.029 81V80.9819L215.324 76.1521C215.469 75.9354 215.565 75.7579 215.613 75.6194C215.661 75.475 215.686 75.3396 215.686 75.2132C215.686 74.9965 215.631 74.8009 215.523 74.6264C215.421 74.4458 215.279 74.3044 215.099 74.2021C214.918 74.0938 214.714 74.0396 214.485 74.0396C214.262 74.0396 214.058 74.0938 213.871 74.2021C213.69 74.3044 213.549 74.4458 213.447 74.6264C213.344 74.8009 213.293 74.9965 213.293 75.2132C213.293 75.4178 213.338 75.6104 213.429 75.791C213.519 75.9715 213.651 76.137 213.826 76.2875H212.192C212.005 75.9444 211.912 75.5863 211.912 75.2132C211.912 74.8701 211.975 74.5481 212.101 74.2472C212.234 73.9463 212.417 73.6815 212.652 73.4528C212.887 73.2181 213.161 73.0375 213.474 72.9111C213.793 72.7787 214.133 72.7125 214.494 72.7125C214.849 72.7125 215.183 72.7787 215.496 72.9111C215.815 73.0375 216.095 73.215 216.336 73.4437C216.576 73.6725 216.766 73.9403 216.904 74.2472C217.043 74.5481 217.112 74.8701 217.112 75.2132C217.112 75.3998 217.088 75.5833 217.04 75.7639C216.998 75.9384 216.928 76.116 216.832 76.2965C216.742 76.4771 216.621 76.6727 216.471 76.8833L214.512 79.6729H217.22V81H212.029ZM221.333 81.1625C220.821 81.1625 220.379 81.0421 220.006 80.8014C219.638 80.5546 219.332 80.2296 219.085 79.8264C218.838 79.4171 218.654 78.9627 218.534 78.4632C218.42 77.9576 218.363 77.4491 218.363 76.9375C218.363 76.4259 218.42 75.9204 218.534 75.4208C218.654 74.9153 218.838 74.4609 219.085 74.0576C219.332 73.6484 219.638 73.3234 220.006 73.0826C220.379 72.8359 220.821 72.7125 221.333 72.7125C221.844 72.7125 222.284 72.8359 222.651 73.0826C223.024 73.3234 223.334 73.6484 223.581 74.0576C223.827 74.4609 224.008 74.9153 224.122 75.4208C224.243 75.9204 224.303 76.4259 224.303 76.9375C224.303 77.4491 224.243 77.9576 224.122 78.4632C224.008 78.9627 223.827 79.4171 223.581 79.8264C223.334 80.2296 223.024 80.5546 222.651 80.8014C222.284 81.0421 221.844 81.1625 221.333 81.1625ZM221.333 79.8354C221.604 79.8354 221.832 79.7481 222.019 79.5736C222.211 79.3991 222.365 79.1704 222.479 78.8875C222.6 78.5986 222.687 78.2856 222.741 77.9486C222.795 77.6056 222.822 77.2685 222.822 76.9375C222.822 76.6065 222.795 76.2725 222.741 75.9354C222.687 75.5924 222.6 75.2794 222.479 74.9965C222.365 74.7076 222.211 74.4759 222.019 74.3014C221.832 74.1269 221.604 74.0396 221.333 74.0396C221.068 74.0396 220.839 74.1269 220.647 74.3014C220.454 74.4759 220.297 74.7076 220.177 74.9965C220.063 75.2794 219.979 75.5924 219.924 75.9354C219.87 76.2725 219.843 76.6065 219.843 76.9375C219.843 77.2685 219.87 77.6056 219.924 77.9486C219.979 78.2856 220.063 78.5986 220.177 78.8875C220.297 79.1704 220.454 79.3991 220.647 79.5736C220.839 79.7481 221.068 79.8354 221.333 79.8354ZM225.562 81V80.9819L228.858 76.1521C229.002 75.9354 229.098 75.7579 229.147 75.6194C229.195 75.475 229.219 75.3396 229.219 75.2132C229.219 74.9965 229.165 74.8009 229.056 74.6264C228.954 74.4458 228.812 74.3044 228.632 74.2021C228.451 74.0938 228.247 74.0396 228.018 74.0396C227.795 74.0396 227.591 74.0938 227.404 74.2021C227.224 74.3044 227.082 74.4458 226.98 74.6264C226.878 74.8009 226.826 74.9965 226.826 75.2132C226.826 75.4178 226.872 75.6104 226.962 75.791C227.052 75.9715 227.184 76.137 227.359 76.2875H225.725C225.538 75.9444 225.445 75.5863 225.445 75.2132C225.445 74.8701 225.508 74.5481 225.635 74.2472C225.767 73.9463 225.951 73.6815 226.185 73.4528C226.42 73.2181 226.694 73.0375 227.007 72.9111C227.326 72.7787 227.666 72.7125 228.027 72.7125C228.382 72.7125 228.716 72.7787 229.029 72.9111C229.348 73.0375 229.628 73.215 229.869 73.4437C230.109 73.6725 230.299 73.9403 230.437 74.2472C230.576 74.5481 230.645 74.8701 230.645 75.2132C230.645 75.3998 230.621 75.5833 230.573 75.7639C230.531 75.9384 230.462 76.116 230.365 76.2965C230.275 76.4771 230.155 76.6727 230.004 76.8833L228.045 79.6729H230.753V81H225.562ZM234.442 81.1625C233.924 81.1625 233.446 81.0481 233.006 80.8194C232.573 80.5907 232.227 80.2868 231.968 79.9076L232.735 78.391C232.796 78.6618 232.904 78.9056 233.06 79.1222C233.217 79.3389 233.412 79.5134 233.647 79.6458C233.888 79.7722 234.15 79.8354 234.433 79.8354C234.721 79.8354 234.983 79.7692 235.218 79.6368C235.453 79.4984 235.639 79.3148 235.778 79.0861C235.916 78.8514 235.985 78.5866 235.985 78.2917C235.985 77.9907 235.913 77.7289 235.769 77.5062C235.624 77.2775 235.429 77.1 235.182 76.9736C234.941 76.8472 234.673 76.784 234.378 76.784C234.102 76.784 233.84 76.8442 233.593 76.9646C233.352 77.0789 233.151 77.2324 232.988 77.425H232.97V72.875H236.816V74.166H234.171V75.6285C234.249 75.6044 234.327 75.5863 234.405 75.5743C234.49 75.5623 234.577 75.5562 234.667 75.5562C235.028 75.5562 235.371 75.6255 235.696 75.7639C236.021 75.8963 236.31 76.0859 236.563 76.3326C236.816 76.5794 237.014 76.8713 237.159 77.2083C237.309 77.5394 237.385 77.9065 237.385 78.3097C237.385 78.713 237.306 79.0891 237.15 79.4382C236.999 79.7812 236.789 80.0822 236.518 80.341C236.247 80.5998 235.934 80.8014 235.579 80.9458C235.224 81.0903 234.845 81.1625 234.442 81.1625Z" fill="white"/>
</g>
<defs>
<filter id="filter0_d_85_152" x="141" y="67" width="108" height="27" filterUnits="userSpaceOnUse" color-interpolation-filters="sRGB">
<feFlood flood-opacity="0" result="BackgroundImageFix"/>
<feColorMatrix in="SourceAlpha" type="matrix" values="0 0 0 0 0 0 0 0 0 0 0 0 0 0 0 0 0 0 127 0" result="hardAlpha"/>
<feOffset dy="4"/>
<feGaussianBlur stdDeviation="2"/>
<feComposite in2="hardAlpha" operator="out"/>
<feColorMatrix type="matrix" values="0 0 0 0 0 0 0 0 0 0 0 0 0 0 0 0 0 0 0.25 0"/>
<feBlend mode="normal" in2="BackgroundImageFix" result="effect1_dropShadow_85_152"/>
<feBlend mode="normal" in="SourceGraphic" in2="effect1_dropShadow_85_152" result="shape"/>
</filter>
<linearGradient id="paint0_linear_85_152" x1="50.9534" y1="7" x2="0.360508" y2="44.9464" gradientUnits="userSpaceOnUse">
<stop stop-color="#018B87" stop-opacity="0.7"/>
<stop offset="1" stop-color="#018B87"/>
</linearGradient>
<linearGradient id="paint1_linear_85_152" x1="49.0244" y1="75.3854" x2="33.4746" y2="53.5954" gradientUnits="userSpaceOnUse">
<stop stop-color="#FA8624" stop-opacity="0.7"/>
<stop offset="1" stop-color="#FA8623"/>
</linearGradient>
</defs>
</svg>
