<svg width="78" height="79" viewBox="0 0 78 79" fill="none" xmlns="http://www.w3.org/2000/svg">
<path d="M29.5444 0.915122L29.5444 0.915115C32.2354 0.438946 35.2955 0.165538 38.5011 0.150643C41.7066 0.135748 45.0485 0.379369 48.2684 0.915368C53.3204 1.75738 57.5414 5.53891 57.5414 10.5382V28.4367C57.5414 33.6054 53.4335 37.8384 48.2931 37.8384H29.5183C23.0606 37.8384 17.6258 43.3784 17.6258 49.6651V58.1029H11.3131C8.62213 58.1029 6.49737 57.1279 4.87796 55.4699C3.25518 53.8085 2.13316 51.4538 1.4691 48.688L1.46906 48.6879C0.5696 44.9571 0.140638 41.9838 0.150155 39.0533C0.159672 36.1227 0.607698 33.2282 1.46906 29.6548L1.46912 29.6546C2.94865 23.4778 7.67011 20.2399 13.0657 20.2399H20.1199H38.9166H39.0666V20.0899V17.702V17.552H38.9166H20.2699V10.5382C20.2699 7.83403 20.6315 5.7894 21.9504 4.24301C23.2712 2.69451 25.5775 1.61593 29.5444 0.915122ZM32.0124 9.35517C32.0124 7.29346 30.3622 5.61233 28.3353 5.61233C26.3012 5.61233 24.6581 7.29366 24.6581 9.35517C24.6581 11.4107 26.3022 13.0761 28.3353 13.0761C30.3612 13.0761 32.0124 11.4109 32.0124 9.35517Z" fill="url(#paint0_linear_85_182)" stroke="black" stroke-width="0.3"/>
<path d="M48.2514 77.2123L48.2513 77.2123C41.1619 79.2694 35.4854 78.9546 29.5607 77.2125C24.6043 75.7547 20.27 72.7907 20.27 67.8047V49.9062C20.27 44.8358 24.4615 40.5045 29.5183 40.5045H48.2931C54.6332 40.5045 60.1856 34.9897 60.1856 28.4368V20.24H67.0898C69.7813 20.24 71.7524 21.2441 73.2212 22.9146C74.6954 24.5912 75.67 26.9469 76.3426 29.656L76.3426 29.656C78.217 37.1908 78.2967 42.8226 76.3459 48.6758L76.3458 48.6759C75.3961 51.535 74.4196 53.8921 73.0112 55.5352C71.6115 57.1684 69.779 58.103 67.0898 58.103H57.6915H38.9167H38.7667V58.253V60.6409V60.7909H38.9167H57.5415V67.8047C57.5415 70.4672 56.3987 72.4733 54.6681 73.988C52.9331 75.5064 50.6069 76.5303 48.2514 77.2123ZM53.1533 68.9877C53.1533 66.9322 51.5092 65.2668 49.4761 65.2668C47.4502 65.2668 45.799 66.932 45.799 68.9877C45.799 71.0494 47.4492 72.7305 49.4761 72.7305C51.5102 72.7305 53.1533 71.0492 53.1533 68.9877Z" fill="url(#paint1_linear_85_182)" stroke="black" stroke-width="0.3"/>
<defs>
<linearGradient id="paint0_linear_85_182" x1="50.9534" y1="1.38735e-06" x2="0.360508" y2="37.9464" gradientUnits="userSpaceOnUse">
<stop stop-color="#018B87" stop-opacity="0.7"/>
<stop offset="1" stop-color="#018B87"/>
</linearGradient>
<linearGradient id="paint1_linear_85_182" x1="49.0244" y1="68.3854" x2="33.4746" y2="46.5954" gradientUnits="userSpaceOnUse">
<stop stop-color="#FA8624" stop-opacity="0.7"/>
<stop offset="1" stop-color="#FA8623"/>
</linearGradient>
</defs>
</svg>
