<svg width="1824" height="1845" viewBox="0 0 1824 1845" fill="none" xmlns="http://www.w3.org/2000/svg">
<path d="M1405.23 470.688V666.075C1405.23 817.555 1276.96 945.199 1130.5 945.199H690.799C570.367 945.199 470.635 1048.07 470.635 1168.81V1587.81C470.635 1706.99 574.445 1777.24 690.799 1811.43C830.047 1852.51 963.647 1859.73 1130.18 1811.43C1240.89 1779.44 1350.35 1714.83 1350.35 1587.81V1420.03H910.648V1364.2H1570.2C1698.15 1364.2 1745.83 1275.13 1790.36 1141.22C1836.15 1003.54 1834.27 870.874 1790.36 693.991C1758.69 566.653 1698.16 471.003 1570.2 471.003L1405.23 470.688ZM1158.1 1531.99C1203.57 1531.99 1240.58 1569.31 1240.58 1615.41C1240.58 1661.83 1203.57 1699.46 1158.1 1699.46C1112.62 1699.46 1075.61 1661.51 1075.61 1615.41C1075.3 1569.31 1112.62 1531.99 1158.1 1531.99Z" fill="url(#paint0_linear_2776_1426)"/>
<path d="M901.239 0.539704C825.969 0.85538 754.15 7.43933 691.112 18.4164C504.819 51.3466 470.949 120.03 470.949 247.047V414.835H910.962V470.66H305.668C177.714 470.66 65.7465 547.497 30.9338 693.646C-9.5231 861.433 -11.092 965.87 30.9338 1140.87C61.9826 1271.02 136.939 1363.86 264.896 1363.86H416.064V1162.83C416.064 1017.62 541.827 889.346 690.798 889.346H1130.18C1252.5 889.346 1350.35 788.673 1350.35 665.734V247.043C1350.35 127.866 1249.67 38.1713 1130.18 18.4111C1054.6 5.87042 976.195 0.226134 901.239 0.539704ZM663.195 135.397C708.67 135.397 745.678 173.346 745.678 219.448C745.678 265.55 708.67 302.871 663.195 302.871C617.72 302.871 580.713 265.55 580.713 219.448C580.402 173.346 617.41 135.397 663.195 135.397Z" fill="url(#paint1_linear_2776_1426)"/>
<path d="M1410.25 476.019L1570.2 476.335C1629.16 476.335 1675.57 496.72 1712.58 538.432C1744.25 574.499 1768.09 625.62 1785.34 695.558C1830.5 876.518 1830.5 1005.1 1785.34 1139.96C1737.99 1282.35 1689.69 1359.5 1570.2 1359.5H905.32V1425.99H1345.02V1588.44C1345.02 1644.89 1322.44 1693.19 1278.22 1731.77C1242.15 1763.13 1191.97 1788.53 1128.62 1807.04C1051.15 1829.62 979.334 1840.28 908.769 1840.28C838.204 1840.28 769.207 1829.62 692.056 1807.04C611.138 1783.2 475.655 1723.3 475.655 1588.44V1168.81C475.655 1050.58 574.133 950.531 690.487 950.531H1129.87C1281.66 950.531 1409.94 820.377 1409.94 666.388V476.019M1158.1 1704.79C1206.39 1704.79 1245.91 1664.65 1245.91 1615.41C1245.91 1566.48 1206.39 1526.66 1158.1 1526.66C1109.8 1526.66 1070.28 1566.49 1070.28 1615.41C1070.28 1664.65 1109.48 1704.79 1158.1 1704.79ZM1405.23 470.688V666.075C1405.23 817.555 1276.96 945.199 1130.5 945.199H690.799C570.367 945.199 470.635 1048.07 470.635 1168.81V1587.81C470.635 1706.99 574.445 1777.24 690.799 1811.43C763.245 1832.75 834.124 1844.98 909.08 1844.98C978.078 1844.98 1050.21 1834.64 1130.18 1811.43C1240.89 1779.44 1350.35 1714.83 1350.35 1587.81V1420.03H910.648V1364.2H1570.2C1698.15 1364.2 1745.83 1275.13 1790.36 1141.22C1836.15 1003.54 1834.27 870.874 1790.36 693.991C1758.69 566.653 1698.16 471.003 1570.2 471.003L1405.23 470.688ZM1158.1 1699.46C1112.62 1699.46 1075.61 1661.51 1075.61 1615.41C1075.61 1569.31 1112.62 1531.99 1158.1 1531.99C1203.57 1531.99 1240.58 1569.31 1240.58 1615.41C1240.58 1661.83 1203.89 1699.46 1158.1 1699.46Z" fill="#8E311B"/>
<path d="M908.138 5.85911C982.183 5.93339 1056.11 11.8057 1129.24 23.4222C1187.89 33.145 1241.83 60.1163 1281.34 99.0054C1323.06 140.404 1345.01 191.525 1345.01 247.036V666.349C1345.01 786.781 1248.72 884.631 1130.17 884.631H690.797C541.512 884.631 410.731 1014.79 410.731 1163.13V1358.83H264.896C205.309 1358.83 155.129 1338.13 115.612 1297.67C79.2311 1260.35 52.5734 1207.35 36.2645 1139.61C-4.82057 968.995 -4.82057 865.186 36.2645 694.888C68.5686 559.717 172.065 475.979 305.982 475.979H916.292V409.492H476.279V247.035C476.279 121.272 508.583 55.7252 692.051 23.4222C756.344 12.1316 828.478 5.85911 901.239 5.54554C903.529 5.80717 905.834 5.91262 908.138 5.8612M663.195 308.192C711.494 308.192 751.01 268.362 751.01 219.436C751.01 170.197 711.494 130.054 663.195 130.054C614.897 130.054 575.381 170.197 575.381 219.436C575.381 268.366 614.583 308.192 663.195 308.192ZM908.138 0.527344H901.239C825.969 0.843019 754.15 7.42696 691.112 18.404C504.819 51.3342 470.949 120.018 470.949 247.035V414.824H910.962V470.649H305.668C177.714 470.649 65.7465 547.486 30.9338 693.634C-9.5231 861.423 -11.092 965.86 30.9338 1140.86C61.9826 1271.02 136.939 1363.85 264.896 1363.85H416.064V1162.81C416.064 1017.6 541.827 889.335 690.798 889.335H1130.18C1252.5 889.335 1350.35 788.662 1350.35 665.721V247.031C1350.35 127.854 1249.67 38.159 1130.18 18.3998C1056.76 6.53129 982.512 0.554721 908.138 0.527344ZM663.195 303.174C617.72 303.174 580.713 265.852 580.713 219.75C580.713 173.334 617.72 135.699 663.195 135.699C708.67 135.699 745.678 173.648 745.678 219.75C745.678 265.852 708.67 303.174 663.195 303.174Z" fill="#25627E"/>
<defs>
<linearGradient id="paint0_linear_2776_1426" x1="1147.32" y1="1603.69" x2="781.387" y2="1090.9" gradientUnits="userSpaceOnUse">
<stop stop-color="#FFA923"/>
<stop offset="1" stop-color="#FA8623"/>
</linearGradient>
<linearGradient id="paint1_linear_2776_1426" x1="1195.34" y1="-3.00138" x2="5.09673" y2="889.872" gradientUnits="userSpaceOnUse">
<stop stop-color="#12CDD9"/>
<stop offset="1" stop-color="#009EA8"/>
</linearGradient>
</defs>
</svg>
