<svg width="433" height="416" viewBox="0 0 433 416" fill="none" xmlns="http://www.w3.org/2000/svg">
<mask id="mask0_2_37" style="mask-type:luminance" maskUnits="userSpaceOnUse" x="131" y="0" width="171" height="172">
<path d="M131 0.479187H301.667V172H131V0.479187Z" fill="white"/>
</mask>
<g mask="url(#mask0_2_37)">
<path d="M216.427 150.474C234.313 150.474 250.521 143.219 262.25 131.49C273.979 119.76 281.234 103.557 281.234 85.6666C281.234 67.776 273.979 51.5729 262.25 39.8437C250.521 28.1198 234.318 20.8646 216.427 20.8646C198.531 20.8646 182.328 28.1198 170.599 39.8437C158.875 51.5677 151.62 67.7708 151.62 85.6666C151.62 103.562 158.875 119.766 170.599 131.495C182.328 143.224 198.531 150.474 216.427 150.474ZM276.542 145.786C261.156 161.172 239.901 170.693 216.427 170.693C192.948 170.693 171.693 161.177 156.307 145.792C140.922 130.401 131.406 109.146 131.406 85.6666C131.406 62.1927 140.922 40.9375 156.307 25.5469C171.693 10.1614 192.948 0.645813 216.427 0.645813C239.901 0.645813 261.161 10.1614 276.542 25.5521C291.932 40.9427 301.448 62.1979 301.448 85.6666C301.448 109.141 291.932 130.396 276.542 145.786Z" fill="#8C52FF"/>
</g>
<path d="M277.552 187.703C269.734 193.609 261.167 198.302 252.083 201.661C241.182 205.698 229.568 207.813 217.703 207.813C205.823 207.813 194.151 205.667 183.151 201.578C173.953 198.156 165.292 193.391 157.448 187.401C142.698 192.896 130.161 202.495 121.057 214.656C111.047 228.047 105.219 244.557 105.219 262.141V293.802H197.109V314.021H85V262.141C85 240.078 92.3073 219.375 104.87 202.573C117.49 185.698 135.432 172.776 156.594 166.396L161.849 164.813L166.026 168.406C173.266 174.635 181.438 179.453 190.177 182.703C198.813 185.911 208.109 187.599 217.703 187.599C227.208 187.599 236.469 185.911 245.135 182.703C253.87 179.474 262.01 174.708 269.193 168.568L273.641 164.766L279.141 166.755C301.766 174.906 318.333 186.682 329.641 202.557C340.901 218.385 346.682 237.932 347.766 261.719V262.151L347.792 303.911L347.797 314.021H236.755V293.802H327.646L327.625 262.589C326.719 242.755 322.125 226.771 313.214 214.25C305.193 202.979 293.464 194.234 277.552 187.703Z" fill="#8C52FF"/>
<mask id="mask1_2_37" style="mask-type:luminance" maskUnits="userSpaceOnUse" x="0" y="325" width="433" height="91">
<path d="M0.333313 325.333H432.333V415.479H0.333313V325.333Z" fill="white"/>
</mask>
<g mask="url(#mask1_2_37)">
<path d="M412.214 346.583H20.6146V394.896H412.214V346.583ZM10.5104 326.365H432.427V415.109H0.401062V326.365H10.5104Z" fill="#8C52FF"/>
</g>
<path fill-rule="evenodd" clip-rule="evenodd" d="M209.703 269.24C205.854 266.885 203.26 262.911 202.885 258.302L201.323 239.068C200.682 231.187 206.573 224.208 214.453 223.573C222.349 222.932 229.307 228.844 229.948 236.74L231.51 255.969C231.958 261.5 229.115 266.625 224.458 269.354L223.818 326.599H208.969L209.703 269.24Z" fill="#8C52FF"/>
</svg>
